<?xml version="1.0" encoding="utf-8"?>
<!-- Generator: Adobe Illustrator 22.1.0, SVG Export Plug-In . SVG Version: 6.00 Build 0)  -->
<svg version="1.1" xmlns="http://www.w3.org/2000/svg" xmlns:xlink="http://www.w3.org/1999/xlink" x="0px" y="0px"
	 viewBox="0 0 3000 2250" style="enable-background:new 0 0 3000 2250;" xml:space="preserve">
<style type="text/css">
	.st0{fill:#FFFFFF;}
	.st1{fill:#EBF2FF;}
	.st2{fill:#EEE1FF;}
	.st3{fill:none;stroke:#003188;stroke-width:6;stroke-linecap:round;stroke-linejoin:round;stroke-miterlimit:10;}
	.st4{fill:#003188;stroke:#003188;stroke-width:6;stroke-linecap:round;stroke-linejoin:round;stroke-miterlimit:10;}
	.st5{fill:#003188;}
	.st6{fill:none;stroke:#9A4AFF;stroke-width:6;stroke-linecap:round;stroke-linejoin:round;stroke-miterlimit:10;}
</style>
<g id="background">
	<rect class="st0" width="3000" height="2250"/>
</g>
<g id="shadow">
	<g>
		<path class="st1" d="M1201.2,466.3c-1.2,13.2,28.3,41.7,35.8,21.6C1243.7,470.2,1203.2,444.7,1201.2,466.3z"/>
		<path class="st1" d="M1334.3,467c0.5-6.6-2.5-13-10.5-10.4c-7.8,2.5-13.8,11.7-15.1,19.5c-1.3,7.4,4.2,13.7,11.8,11
			c7.4-2.6,12.2-11,13.5-18.4C1334.1,468.2,1334.2,467.6,1334.3,467z"/>
		<path class="st1" d="M1262.5,531.6c0.5,7,8.7,9.1,14.5,8.8c5.3-0.2,13.4-4.4,12.7-10.7C1288.9,521.3,1261.7,520.2,1262.5,531.6z"
			/>
		<path class="st1" d="M1166,396c11.5-6.9,33.9-7.6,53.5-2.4c22.5,6,16.6,20.5,73.1,2.2c11.2-3.6,32.7-3,44.4-1
			c7.2,1.2,19.6,6.3,25.9,0.6c14.7-13.2-25.3-27.2-31.8-32.5c-6.3-5-8.1-13.7-13.1-19.7c-18.3-21.9-36.6-25-61.6-22.7
			c-25.5,2.4-54.3,9.7-73.5,27.6C1175.3,355.2,1147.5,390.6,1166,396z"/>
		<path class="st1" d="M1654.9,808c8-10.9,11.6-24.5,10.9-38c-0.5-8.2-5-23.6-16.2-14.8c-10.4,8.2-11.3,25.4-11.6,37.6
			c-0.1,5.6-1.3,14.4,4.4,18.1C1646.5,813.6,1652.1,811.8,1654.9,808z"/>
		<path class="st1" d="M797.9,803.9c2.3-14.6,3.6-36.6-4-50.1c-4.8-8.5-18-10.2-22-0.2c-4.5,11.4,2.3,32.5,6.1,43.5
			c1.9,5.5,3.2,12,9.7,13.1C791.8,811.1,797.2,808.4,797.9,803.9z"/>
		<path class="st1" d="M1554.5,1116.2c21.8,5.2,9-39.3,5.4-47.6c-7.1-16.4-17.4-33.5-31-45.3c-29.9-26-65.6-15-100.7-6.9
			c-5.3,1.2-32.4,4.2-23.5,17.9C1433.3,1078.3,1516.9,1107.3,1554.5,1116.2z"/>
		<path class="st1" d="M1122,1216.7c20.7-6.9,38.5-33.4,46.9-52.3c7.2-16.3,12.2-51.2-17.2-44.9c-23,5-34.8,23.7-41.9,45
			C1106,1175.8,1094.3,1225.9,1122,1216.7z M1148.7,1147.3C1148.7,1147.3,1148.7,1147.3,1148.7,1147.3
			C1149.2,1146.8,1149.2,1146.8,1148.7,1147.3z M1121.7,1201.9C1122.1,1202.6,1121.6,1203.6,1121.7,1201.9L1121.7,1201.9z"/>
		<path class="st1" d="M1341.1,1144.9c-5.7,1.7-21.3-1-18,11.7c3.4,12.8,27.2,12.1,36.4,17.1c11,6,13.6,18.8,17.5,29.8
			c5.9,16.8,12,33.5,17.9,50.3c5.3,15,10.6,29.9,16.2,44.8c6,15.8,12.2,31.3,10.4,48.4c-3.4,32.4-6.7,62.2-0.9,94.7
			c5.2,29,15.2,58.6,35.9,80.3c7,7.3,20.1,16.7,23.6,1.3c3.2-13.8-5.1-33.4-9.7-46.2c-10.9-30.2-20.1-59.3-23.8-91.4
			c-3.6-31.5-1.7-63.4-8-94.6c-7.4-37.3-21.4-73.3-33.1-109.4c-4-12.2-6.6-35.1-17.3-43.6
			C1376.6,1128.8,1353.3,1141.2,1341.1,1144.9z M1380.2,1162.7c1.2,3.2,2.4,6.4,3.5,9.6c-1.6-2.8-3.6-5.3-5.8-7.6
			C1378.6,1164,1379.4,1163.3,1380.2,1162.7z"/>
		<path class="st1" d="M1563,1171.4c-14,5.4-44.6,10.7-49.1,27.8c-5.4,20.3,21.5,25,35.6,22.5c15.6-2.7,36.1-16,37-33.7
			C1587.3,1171.5,1575.6,1166.5,1563,1171.4z"/>
		<path class="st1" d="M1320.4,1617.4c34.3,30.4,53.9-23.9,56.8-50.5c4.1-37.6-3.5-76.8-19.9-110.7c-3.4-7-6.6-16.6-14.4-19.3
			c-8.9-3-17.6,2.7-22,9.9c-9.3,15.2-13,36.4-16.1,53.6C1298.4,1534.8,1290.6,1591,1320.4,1617.4z"/>
		<path class="st1" d="M1332.7,1178.9c-22.1,43.1-20.5,91.9-14.5,138.6c3.1,24.4,7.4,48.6,9.9,73.1c0.7,7-1.1,18.4,6.4,22.1
			c5.1,2.5,10.8,0.2,12.6-5c2.6-7.3-1.7-22.6-2.7-30.1c-1.4-10.9-3.2-21.8-4.8-32.7c-3.6-23.5-7.3-47-8.1-70.8
			c-0.7-21.6,1.1-43.5,7.7-64.2c2.3-7.4,11.8-20,9.9-27.8C1347.3,1174.5,1336.7,1171,1332.7,1178.9z"/>
		<path class="st1" d="M1341.4,1710.4c19.1,10.5,41.9,19.4,64,21c18.5,1.3,31.7-17.4,13.5-29.7c-15.1-10.3-38.1-13.2-55.5-17.5
			C1330.6,1676.1,1335.2,1707,1341.4,1710.4z"/>
		<path class="st1" d="M1375.5,1779.2c13.8,8.5,58.8,16.1,38-11.5c-6.8-9.1-20.2-9.4-31-6.5
			C1374.9,1763.3,1364.8,1772.7,1375.5,1779.2z"/>
		<path class="st1" d="M1410.6,1862.1c12.4,0.1,25.8-2.1,33.8-1c13.5,2,33.9,11.1,40.4-7.4c5-14.2-11.7-26.5-22.6-31.7
			c-17.6-8.5-38.6-9.3-56.7-1.8c-9.3,3.9-22.7,11.1-23.5,22.6C1381,1858.4,1398.8,1862,1410.6,1862.1z M1466.5,1846.7"/>
		<path class="st1" d="M1347.5,1855c1.5-14.8-16.8-55-25.3-64c-9.7,5.5-1.8,31.1,1,39.3C1326.1,1838.8,1338.7,1862.4,1347.5,1855z"
			/>
		<path class="st1" d="M1480.3,1897.4c-23.7-9.2-48.9-4-73.4-2.1c-8.4,0.6-16.8,2-25.3,1.1c-4.1-0.4-8.6-1.3-11.9-3.9
			c-4.5-3.5-4.1-10.4-8.1-14.3c-5.5-5.4-14.4-1.2-15,6.2c-1.2,13.5,13.2,24.3,24.5,27.4c30.5,8.3,61.8-6.6,92.6-0.4
			c6.3,1.3,14.2,6.3,19.9,1.3C1489.2,1907.8,1486.9,1899.9,1480.3,1897.4z"/>
		<path class="st1" d="M1625.5,1536.3c10.9-4.7,26-10.6,24.9-24.9c-1.1-14.9-16.2-20.2-28.8-20.5c-9-0.3-51.7,0.9-64,5.5
			c-8.9,3.3-17.6,9.7-18.9,19.8c-0.3,2.2-0.2,4.5,0.2,6.7c-13.2-14.8-30.7,29.5-34.5,37.8c-15.4,33.8,3.8,254.7,4.8,280.2
			c0.6,14.7,6.7,14.6,19.9,13.9c8.4-0.4,25.7,2.5,30.2-6.6c3.7-7.6-1.9-27.7-2.8-36.2c-1.2-12.7-2.4-25.5-3.5-38.2
			c-2.2-25.5-4.1-51-5.7-76.5c-1.8-29.2-3.3-58.4-4.4-87.6c-0.5-13.2-0.9-26.5-1.3-39.7c-0.3-11.8-3-27.3-0.5-38.6
			c5.8,14.9,15.7,26.2,32.8,23.2C1591.5,1551.4,1609.3,1543.3,1625.5,1536.3z"/>
		<path class="st1" d="M1651.5,1562.8c-8.5,5.3-3.4,17.1,5.7,16.7c2.5-0.1,6.1-2.1,8.8-2.4c6.4-0.7,17.7-2.2,11.7-12.8
			C1672.9,1555.8,1658.2,1558.6,1651.5,1562.8z"/>
		<path class="st1" d="M1594,1703c7.3-3.1,14.7-5.8,22.2-8.3c4.9-1.6,13.5-2.3,16.9-6.3c4.9-5.8,0.6-14.3-6.4-15.2
			c-10.3-1.3-30.5,8.2-39.4,13.2C1576.4,1692.6,1581.4,1708.4,1594,1703z"/>
		<path class="st1" d="M1841.8,1620.9c-38.7,10.2-77.3,20.4-116,30.5c-9.9,2.6-19.8,5.2-29.7,7.8c-6.5,1.7-18.7,2.5-24,6.7
			c-8.7,6.8-1.8,16.5,7.3,16.3c8.4-0.2,18.8-5,27-7.1c9.9-2.6,19.8-5.2,29.7-7.8c18.9-5,37.8-9.9,56.6-14.9
			c9.9-2.6,19.8-5.2,29.7-7.8c7.3-1.9,20.8-2.8,26.7-7.4C1856.4,1631.5,1851.8,1618.3,1841.8,1620.9z"/>
		<path class="st1" d="M1290.6,1416.9c-12.8-3.5-28.2,2.3-41.2,3c-12,0.6-24,0.2-35.9-0.8c-13.4-1-32.3-3.9-45.6-5.5
			c-1.6-0.2,13.7-69.6-25.3-68.7c-15.3,0.3-22.6,7.5-23.5,18.4c-1.3,14.4-1.5,28.9-2.2,43.3c-12.9-5.1-26.4,2.6-29.6,15.8
			c-3,12.4,3.5,25,13.1,32.6c2.9,2.3,7.4,3.6,10,6c5,4.6-18.2,376-14,381.5c6.1,8,36.9,7.1,43.1-0.5c4.5-5.6,18.5-372.9,25.1-377.9
			c5.8-4.4,72.1,6.1,94,3c16.3-2.3,36.2-2.2,43-20C1305.8,1435.9,1304.1,1420.7,1290.6,1416.9z"/>
		<path class="st1" d="M1138.3,1345.1c49.9-1.8,99.7-1.3,149.5,0.2c9.4,0.3,17-0.9,19.3-11.7c1.8-9-3.2-18.6-10.8-23.3
			c-13.7-8.7-32.6-3.5-47.6-2.7c-25.4,1.4-50.9-0.3-76.3-1.9c-21.1-1.3-44.2-2.7-62.1-15.1c-7.2-5-13.5-11.8-17-19.9
			c-3.7-8.5-0.8-18-5.9-25.4c-16.1-23.3-27,9.8-31.2,24c-6.4,21.8-4.5,47.6,13.8,63.3C1088.9,1348.9,1115.4,1345.9,1138.3,1345.1z"
			/>
		<path class="st1" d="M1020.8,1834.6c15.4-2.7-11.8-95.1-5-103c37.1-43-3.1-132.9,4.4-165.8c4.9-21.5,15.9-50-3.7-67.8
			c-23.1-20.9-64.2-8.1-90.9-3.7c-27.4,4.5-54.8,9-82.1,13.4c-27.7,4.4-66.9,0.2-88.8,21.1c-22.4,21.3-17.8,67.9-19.2,95.9
			c-2.6,53.8-3.2,108.4-14.1,161.4c-4.4,21.6-30.5,69.1,11.6,53.9c23.2-8.4,40.5-2.2,63.1,7.1
			C866.6,1876.1,949.5,1846.8,1020.8,1834.6z"/>
		<path class="st1" d="M2285.6,1017c-56.3-18.4-274-35.3-272.9-28.8c1.6,9.4-2,11.8-3.6,23.9c-2.4,17.8-33,16.9-49.8,16.1
			c-16.6-0.8-38.8-10.7-33.2-31.2c2.7-9.7-202.4-4.7-241.6,15.5c-21.5,11.1,24.9,22,31,23.4c91.3,21.7,185.3,32.6,279.2,32.2
			c52.7-0.2,105.5-3.9,157.7-11.1c27.2-3.7,54.2-8.4,81-14c12.5-2.6,25-5.4,37.4-8.5C2276.9,1033.3,2300,1021.8,2285.6,1017z"/>
		<path class="st1" d="M1949.1,908.5c10.4,6.1,14.7-6.9,11.1-14.1c-4.8-10-14.1-19.4-21.7-27.4c-17-18-37.5-33.4-60.3-42.9
			c-6.9-2.9-19.8-6.1-17.8,6.9c1.6,10.1,17.7,22.1,24.7,29C1904.4,878.7,1925.9,895,1949.1,908.5z"/>
		<path class="st1" d="M1974.6,907c4.8,2.9,10.9,0.2,13-4.8c7.7,21.7,48.4-17.2,56-23.2c11.5-9.2,22.9-18.5,34.2-28
			c6.8-5.7,26.1-16.9,26.4-26.4c0.3-11.5-10.7-9.5-17.5-6.4c-5.5,2.5-10.9,5.3-16.2,8.3c-2.8,1.6-6.5,5.2-9.7,6
			c-2.1,0.5-4.9-1.3-7.5-0.6c-10.2,2.5-22.8,18.7-30.3,25.9c-11.2,10.6-21.8,21.7-32,33.3c6.4-27.4,2.8-56.3,0.6-84.1
			c-0.9-10.8,1.3-30.1-3.8-39.7c-6.1-11.5-18.6-2.2-21,6.4c-7.2,25.5-7.6,55.3-8.8,81.7C1957,873.5,1956.7,896.3,1974.6,907z
			 M1976.3,848c0.3,8.2,0.2,16.4-0.6,24.5C1975.2,864.4,1975.7,856.2,1976.3,848z"/>
		<path class="st1" d="M1996.1,1112.6c0.3-12.5-47.7-9.5-52.9-0.3c-4.7,8.2-7.1,442.3-8.4,546.8c-0.7,52.7-1.3,105.3-2,158
			c-0.1,9.3-3.7,22.9,6.4,27.7c10.2,4.9,27,3.5,37.9,2.3c14.5-1.6,19.4-4,19-19.1c-0.4-13.9-0.7-27.8-1-41.6
			c-2.4-106.2-3.6-212.4-3.6-318.6C1991.5,1349.4,1993.1,1231,1996.1,1112.6z"/>
		<path class="st1" d="M2106.9,1866.5c-90.9,22.6-186.7,23-277.7,1c-6.5-1.6-14.9-5.8-19.8,0.9c-3.2,4.3-2,9.8,2.1,12.9
			c6.7,5.1,22.7,5.9,31,7.7c12.2,2.5,24.4,4.7,36.7,6.5c46.5,6.7,93.7,8.1,140.5,3.9c25-2.2,49.9-6,74.5-11.3
			c6.7-1.5,21.8-1.7,23.8-10.4C2119.4,1871.1,2113.3,1865,2106.9,1866.5z"/>
		<path class="st1" d="M764.6,1925.4c-16.2-6-34-7.5-51-4.5c-7.6,1.3-21.8,9.7-9.6,17.7c4.9,3.3,11.6-0.1,16.9-0.7
			c8.1-1,16.5-0.7,24.5,0.8c7,1.3,16.3,7.3,22.5,2C773.5,1936,771.2,1927.8,764.6,1925.4z"/>
		<path class="st1" d="M1044.9,1896.8c-26.8,3.8-51.2-1.1-77.6-2.9c-7.5-0.5-23.2-2.2-25.5,7.6c-1.4,5.7,3.1,10.5,8.4,11.3
			c4.9,0.7,10.8-1.5,16-1.1c4.6,0.3,9.3,1.3,13.8,2c13.2,2,26.4,3.2,39.8,2.9c8.1-0.2,25.8,1.3,32.5-3.5
			C1060.8,1907.1,1054.5,1895.4,1044.9,1896.8z"/>
		<path class="st1" d="M1238.6,1817.7c-10.7-5.1-29-9-40.2-2.7c-5.8,3.2-9.4,12.4-2.1,16.8c3.8,2.3,7.4,0.1,11.3-0.7
			c7.3-1.4,12.8-0.5,19.8,1.3c5.2,1.4,11,3.5,14.4-2.4C1244.1,1826.1,1243,1819.8,1238.6,1817.7z"/>
		<path class="st1" d="M1221.9,1932.6c-10.6-1.9-31-6.4-41-1.1c-9,4.8-5.6,15.2,3.4,17.1c6.5,1.4,15.1-0.7,21.9-0.1
			c4.5,0.4,10.1,2.5,14.4,1.5C1229.1,1948.1,1232.1,1934.5,1221.9,1932.6z"/>
		<path class="st1" d="M1544.1,1943.1c-9.1-0.9-28-2.8-36,2.8c-5.7,4-4.9,12.3,1.2,15.6c4,2.2,9,0.3,13.2-0.2
			c6.4-0.8,12.8,0.1,19.1-0.3C1553.4,1960.1,1558.1,1944.4,1544.1,1943.1z"/>
		<path class="st1" d="M1705.1,1913.3c-26.1,6.9-53.3-0.4-79.7-1.4c-8.6-0.3-29.2-2.9-35.2,4.7c-10,12.8,9.8,14.1,16.8,13.4
			c26.8-2.6,53.4,5.3,80.2,4c7.8-0.4,25.1,0.3,28.5-8.7C1718.2,1918.6,1711.9,1911.5,1705.1,1913.3z"/>
		<path class="st1" d="M1674.4,1862.3c-7.1,0-11.2,8.5-7.1,14.3c4.6,6.5,23.1,5.1,29.9,3.7c6.2-1.2,11.2-6.7,7.7-13.3
			C1700.4,1858.5,1682.2,1862.3,1674.4,1862.3z"/>
	</g>
</g>
<g id="color_shadow_1_">
	<g>
		<path class="st2" d="M1614.5,472.6c-54.1,8.3-107.3,20.9-159.6,36.9c-52.3,16-103.5,35.1-154.5,54.7c-19.4,7.4-32.1,10.9-51.8,3.2
			c-31.2-12.2-60.6-27.9-92.4-39.1c-81.3-28.6-166.1-45.5-251.8-53.6c-16.5-1.5-32.9-3-49.4-4.4c-9.2-0.8-36.1-7.1-34.5,5.3
			c19.1,149.7,13.7,262.3,14.9,262.4c7.9,0.3,15.4,5,18.1,12.9c1.4,4.1,0.8,8.8-3,11.4c-4.2,2.9-9.9,1.9-14.8,0.4c0,1.2,0,2.5,0,3.7
			c10.4,1.7,27.8,9.9,19.5,21.5c-4,5.6-11.6,6.7-19.2,6.5c0.2,51.7-0.8,103.3-3.2,154.9c-2,43.8-4.9,87.6-8.8,131.3
			c-0.3,3.9,2.9,8.2,6.6,8.7c96.7,11.7,184.7,31.4,277.3,23.5c44.1-3.7,84-27.4,124.9-44.1c47.1-19.2,94.5-36.6,143.6-50.1
			c46-12.7,115.8-31.1,153.5,10c13.1,14.3,21.7,34.5,41.5,41c42.1,13.8,38-50.9,36.4-75.1c-4.2-61.3-4.6-122.7-5.8-184.1
			c-2.1-109.4-8.8-220.4,23.5-326.6C1627.7,476.4,1620.9,471.6,1614.5,472.6z M1018.4,633.8c-0.1,0.3-0.2,0.6-0.3,0.8
			c-3.4,6.6-24-0.2-29.6-1.1c-13.5-2.1-27.1-4.3-40.6-6.4c-27.1-4.3-54.2-8.6-81.3-12.8c0.5-32.2-0.5-64.4-2.9-96.5l1,1.3
			c47.3,8.7,94.6,17.6,141.8,26.6c12.2,2.3,9.9,24.5,10.6,33.6c0.9,12.2,1.3,24.5,1.3,36.7C1018.4,620.3,1019.9,629.4,1018.4,633.8z
			"/>
	</g>
</g>
<g id="outline">
	<path class="st3" d="M1188.7,430.6c-1.4,6.9-1.5,15.1,3.8,19.8c0.6,0.5,1.2,1,2,0.9c1.3-0.1,2-1.4,2.5-2.6
		c4.5-11.7,6.4-24.4,5.3-36.9"/>
	<path class="st3" d="M1161.5,407.8c-0.8,6.2-1,12.5-0.5,18.7"/>
	<path class="st3" d="M1177.9,438.1c-8.2-3.2-18.3,0.2-23.3,7.5c-5,7.2-4.7,17.6,0.4,24.8c5.1,7.2,14.4,10.9,23.1,9.7"/>
	<path class="st3" d="M1168.2,458.2c3.5,1.4,7,2.7,10.6,4.1"/>
	<path class="st3" d="M1225.9,425.6c11.5-2.2,23.5-2.3,35.1-0.2"/>
	<path class="st3" d="M1245.4,442.8c0.1,2.7,0.2,5.4,0.3,8.1C1246.4,449.4,1245.8,444.4,1245.4,442.8"/>
	<path class="st3" d="M1310.5,419.8c-6.9,0.6-13.6,2.4-19.9,5.3c-0.8,0.4-1.6,0.8-2.1,1.5c-0.6,0.9-0.7,2-0.7,3
		c-0.2,7.3-0.4,14.7,0.7,22c0.9,6,2.8,11.9,2.7,17.9c0,1.5-0.2,3.2-1.1,4.4c-0.8,1-2,1.6-3.2,2.1c-3.9,1.6-8,2.7-12.2,3.3"/>
	<path class="st3" d="M1303.3,440.1c0.1,2.7,0.2,5.4,0.2,8.1C1304,445,1304,442.2,1303.3,440.1"/>
	<path class="st3" d="M1269.8,508.5c5.4-0.8,10.9-1,16.3-0.5"/>
	<path class="st3" d="M1173.1,490c-0.4,5.2-0.1,10.4,0.9,15.4"/>
	<path class="st3" d="M1331.9,410.4c4.8,32.7,2.3,66.5-7.1,98.2"/>
	<path class="st3" d="M1165.9,397.7c24.2-9,52-7.9,75.3,3.1c3.8,1.8,7.6,3.9,11.8,4.1c3.7,0.2,7.3-1.1,10.8-2.2
		c30.1-9.7,62.6-11.8,93.6-6c2.9,0.6,6,1.2,8.9,0.5c2.9-0.7,5.7-3,5.8-6c0.1-3-2.3-5.5-4.7-7.3c-12-9.5-26.5-15.7-41.6-17.8"/>
	<path class="st3" d="M1165.7,396.4c51.5-20.5,105.4-32.9,160.7-30.3"/>
	<path class="st3" d="M1162.1,387.2c-0.5-25.5,10.5-54.5,32-63.4c7.3-3,14.7-6,22.5-7.6c21.8-4.6,44.5-9.2,66.2-4
		c21.7,5.2,42,23.2,42.1,45.5"/>
	<path class="st3" d="M1239.2,290.4c0.3,2,0.6,4,1,5.9"/>
	<path class="st3" d="M1213,331.9c-4.3,0-8.3,2.3-11.7,5c-9.3,7.2-15.8,17.8-18.2,29.3"/>
	<path class="st3" d="M795.5,707.6c-8.2,2.6-15.5,8.1-20.2,15.3"/>
	<path class="st3" d="M789.7,761.8c17.5,6,36.6,5,55,3.8c4.6-0.3,10.3-1.3,11.9-5.7"/>
	<path class="st3" d="M852.6,747.1c-16.3-8.6-35-11.5-53.4-13.3c-8.3-0.8-17.2-1.4-24.6,2.5c-7.4,3.9-12.2,13.9-7.7,20.9
		c1.2,1.9,3,3.6,2.9,5.8c-0.1,1.3-0.9,2.4-1.5,3.5c-5.3,8.9-3.9,21.3,3.2,28.9c1.8,1.9,3.9,3.6,4.6,6.1c0.5,1.7,0.2,3.5,0.2,5.3
		c0.1,10.9,10.7,18.6,20.7,23.1"/>
	<path class="st3" d="M790.3,792.8c16.9,2.5,34,3.1,51,2.4c6.6-0.3,14.4-1.5,17.6-7.3c2.5-4.5,0.7-10.9-3.7-13.5"/>
	<path class="st3" d="M1644.6,719.8c9.7,1.5,15.9,10.7,21,19.1c4,6.6,8,13.3,9.4,20.8c1.4,7.5-0.2,16.1-6.1,21
		c8.5,6.9,6.7,22.5-3,27.3c4.6,3.2,3.9,10.8,0,14.9c-3.9,4.1-9.7,5.6-15.1,7c-16.7,4.1-34.3,8.2-50.7,3.3c-1.6-0.5-3.2-1.1-4.1-2.4
		c-2.7-3.8,2.4-8.3,6.7-10c10.2-4,20.8-6.8,31.6-8.3"/>
	<path class="st3" d="M1610,811.4c-3.3,0.2-6.7,0.3-9.7-1.1s-5.3-4.8-4.4-7.9c0.8-2.5,3.3-4.1,5.7-5.3c10-5.1,20.5-9.3,31.4-12.3"/>
	<path class="st3" d="M1646.7,748c-17.5,2.4-34.5,8.4-49.8,17.4c-2.1,1.2-4.3,2.8-4.8,5.1c-0.8,3.9,3.5,6.7,7.2,8
		c19.7,6.6,41.2,1.4,61.3-3.9"/>
	<path class="st3" d="M1632.8,854.6c9-4.1,16.6-11,21.6-19.4"/>
	<path class="st3" d="M1093.8,1133.6c-8.1,29.4-12.6,59.8-13.6,90.3c-0.3,10.1-0.2,20.4,2.8,30c6.4,20.6,25.4,35.3,45.8,42.2
		c20.4,6.9,42.4,7.3,63.9,7.5c33.9,0.4,67.8,0.9,101.7,1.3"/>
	<path class="st3" d="M1150.7,1128.9c-19.5,20.6-32.9,46.9-38.1,74.7"/>
	<path class="st3" d="M1158.7,1145.2c-6.8,10.3-12.3,21.3-16.4,32.9"/>
	<path class="st3" d="M1116.5,1116.2c107.2-41.4,215.1-83,328.1-103.8c20.6-3.8,42.5-6.8,62.2,0.5c17.8,6.6,31.7,21.1,41.2,37.5
		c9.5,16.4,14.9,34.8,20,53c22.4,80.9,38.3,163.8,66.1,243c14.3,40.7,31.9,82,28.8,125"/>
	<path class="st3" d="M1315.4,1117.2c-4.5,2-8.5,5.6-10.3,10.2s-1.2,10.3,2,13.9c5.2,5.9,14.5,5,22.2,3.5c17.5-3.4,34.8-7.4,52-12.2
		"/>
	<path class="st3" d="M1394.7,1094.9c-7.6,38.4,3.1,77.9,16.5,114.6c13.5,36.7,30,72.9,34.6,111.8c2.9,24.2,1,48.7,3.1,73
		c3.8,44.9,21,87.5,37.9,129.3"/>
	<path class="st3" d="M1499.2,1517.9c15.7-11.2,33.7-19.2,52.5-23.3c34.3-7.6,70.6-2.7,104.5-12"/>
	<path class="st3" d="M1508,1493c32.8-19.7,73.5-19,111.7-17.1"/>
	<path class="st3" d="M1578.1,1173.2c-14.4,11.1-31.8,19-48.5,26.5c13.2-0.8,26.4-1.5,39.6-2.3"/>
	<path class="st3" d="M1339.9,1176c-19.9,35-21.6,77.6-17.3,117.7c4.3,40.1,14,79.6,14.9,119.9"/>
	<path class="st3" d="M1304.5,1323.4c12.3,65.1-2.9,131.9-19.2,196.1c-10.4,41.2-21.4,83.6-15.2,125.6"/>
	<path class="st3" d="M1331.9,1603.2c2.1-28.5-13.9-56-12.6-84.6c0.1-1.3,0.2-2.9,1.3-3.7c1.8-1.3,4.2,0.3,5.6,2
		c9.9,12,10.4,31.7,24.2,38.8c5.6-35.3-3.9-71.1-13.3-105.6"/>
	<path class="st3" d="M1343.8,1350.2c0.5,9.6,2.3,19.2,5.2,28.3"/>
	<path class="st3" d="M1143.4,1190.1"/>
	<path class="st3" d="M1566,1210.4c1.3,0,2.7,0,4,0"/>
	<path class="st3" d="M1274.5,1655.9c60.3-3.4,119.5,25.4,179.6,19.4"/>
	<path class="st3" d="M1461.3,1655.5c5.8-38.5,14.1-76.6,24.6-114"/>
	<path class="st3" d="M1535.6,1510.4c9.3,21.9,14,45.7,13.7,69.5c-0.1,9.4-1,18.9-0.4,28.3c1.7,27.8,15.6,53.1,29.2,77.4"/>
	<path class="st3" d="M1647.4,1496.3c8.2,15.6,15.1,32.2,26.8,45.4c12.8,14.5,31,24,50.2,26.3c17.2,2.1,34.6-1.6,51.9-3.2
		c17.3-1.7,35.8-1.1,50.4,8.2c21.1,13.4,27.9,40.5,33.1,64.9"/>
	<path class="st3" d="M1850,1643.5c-59.8,18.6-120.7,33.8-182.3,45.5c-1.2,0.2-2.5,0.4-3.6-0.1c-1.1-0.6-1.7-1.8-2.2-2.9
		c-4.7-10.3-9.5-20.7-14.2-31c-1.3,9.8-2.7,19.5-4,29.3c-0.5,3.8-1.2,7.9-3.9,10.7c-2.3,2.3-5.6,3.2-8.8,3.9l-43.5,10.8l-7-18"/>
	<path class="st3" d="M1584.2,1682.7c16.1-2.6,32.1-6.3,47.7-11.2"/>
	<path class="st3" d="M1671.6,1662.3c57.9-12.7,115.8-25.5,173.8-38.2"/>
	<path class="st3" d="M1547.4,1526.9c32.3,6.3,66.8,0.8,95.5-15.3"/>
	<path class="st3" d="M1551.2,1554.5c34.6,4.5,70.7-3.6,100.1-22.3"/>
	<path class="st3" d="M1647.8,1567.1c10.3-2.5,20.7-5,31-7.5"/>
	<path class="st3" d="M1661.9,1578c5.7-2.7,11.8-4.7,18-5.7"/>
	<path class="st3" d="M1697.4,1542.9c4.1-20,13.6-39,27.2-54.2c2.4-2.6,5.7-5.4,9-4.3c4.3,1.4,4.3,7.5,3,11.8
		c-5.1,17.3-16.7,31.8-28.2,45.7c13.2-11.1,29.8-18.1,47-19.8c4-0.4,9.4,0.6,9.7,4.6c0.2,2.3-1.5,4.2-3.2,5.8
		c-13.9,12.7-33.2,17.4-51.8,20.7"/>
	<path class="st3" d="M1332.3,1679.8c2.5,22.8,0.7,46-5,68.2c-3.7,14.3-9,29.6-3.4,43.2c2.3,5.5,6.1,10.2,9.1,15.3
		c8.2,14.1,9.4,31,13.9,46.7c4.5,15.7,14.7,31.9,30.8,34.5"/>
	<path class="st3" d="M1388.1,1889.6c5.3,1.8,11.1,1.9,16.7,1.7c24.6-0.8,50.3-5.6,73.2,3.5"/>
	<path class="st3" d="M1412.6,1822.9c14.4-3.8,29.5-4.7,44.3-2.8c5.7,0.7,11.5,1.9,16.4,4.9c7.6,4.7,12.2,13.1,14.8,21.7
		c4,13.1,4.2,27.3,0.6,40.4"/>
	<path class="st3" d="M1452.6,1806.1c-4.9-6.4-9.8-12.9-14.7-19.3c-2.3-3-4.6-6-5.8-9.5c-1.6-4.5-1.5-9.4-1.3-14.2
		c0.5-14.8,1.1-29.7,1.6-44.5"/>
	<path class="st3" d="M1341.8,1692.8c26.2,8.6,53.6,13.9,81.2,15.6"/>
	<path class="st3" d="M1342.9,1719.2c24.2,6.5,49.1,10.2,74.2,10.9"/>
	<path class="st3" d="M1377.1,1771.7c11-2.2,22.5-2.5,33.6-0.9"/>
	<path class="st3" d="M1383,1785.4c8.6-2.6,17.8-3.2,26.6-1.6"/>
	<path class="st3" d="M1318,1785.7c-2.3,10.2-4.6,20.5-4.2,31s3.8,21.2,11.4,28.4c6.4,6.1,15.2,9.2,22.3,14.5"/>
	<path class="st3" d="M1346.7,1862.4c-1.5,9.1-2.2,18.4-2,27.6c0.1,3.5,0.3,7.1,1.6,10.4c3.6,8.8,14.2,12.3,23.6,13.2
		c18.1,1.7,36.2-2.3,54.4-1.7c14.9,0.5,29.6,4,44.4,5.3c6.4,0.6,13.6,0.4,17.9-4.3c3.3-3.6,3.9-8.7,4.3-13.6"/>
	<path class="st3" d="M1267.4,1567.8"/>
	<path class="st3" d="M1069.2,1251.4c-11.3,18.3-15,41.1-10.2,62.1c1.7,7.5,4.7,15.1,10.5,20.1c7.2,6.3,17.3,7.7,26.8,8.7
		c62.3,6.7,125.1,8.2,187.7,4.6"/>
	<path class="st3" d="M1067.6,1297.4c15.2,5.9,31.1,9.8,47.3,11.6"/>
	<polyline class="st3" points="1116.5,1348.9 1091.6,1852.8 1143.6,1852.8 1170.5,1350.2 	"/>
	<polyline class="st3" points="1554.6,1692.8 1562.5,1857.8 1510.5,1857.8 1496.3,1592.2 	"/>
	<path class="st3" d="M1105.3,1410.7c-11-0.9-22,7.7-23.8,18.6c-1.8,10.9,5.9,22.5,16.6,25.2"/>
	<path class="st3" d="M1176.6,1464.2c35.7,4.4,72,4.4,107.8,0.2"/>
	<path class="st3" d="M1179.4,1425.7c34.3,4.4,69.1,4.5,103.5,0.3"/>
	<path class="st3" d="M1128.4,1368.1c-1.3,19.9-2.7,39.8-4,59.7"/>
	<path class="st3" d="M1182.4,1439.5c10.2,0.6,20.4,1.1,30.6,1.7"/>
	<path class="st3" d="M1105.2,1840.2c7.3-0.8,14.7-0.4,21.9,1.1"/>
	<path class="st3" d="M1521.8,1844.4c5.3-0.5,10.7-1.1,16-1.6"/>
	<path class="st3" d="M1509.8,1602.7c0.6,11.2,1.1,22.3,1.7,33.5"/>
	<path class="st3" d="M1148.9,1515.3"/>
	<path class="st3" d="M1138.2,1729.3c-0.8,7.8-1.6,15.6-2.4,23.4"/>
	<path class="st3" d="M1128.7,1313"/>
	<path class="st3" d="M707.1,1842.8c35.4-91.9,15.2-196.6,42.3-291.2c3.1-11,8.5-23.4,19.7-26.1c7.9-1.9,16.3,2.1,21.7,8.2
		s8.1,14,10.3,21.9c15.6,55.8,6.4,115.5,15.7,172.7c1.2,7.2,3.3,15.3,9.9,18.6c9.4,4.7,21.8-3.6,30.8,1.7"/>
	<path class="st3" d="M903.5,1742.6c20.1-4.6,40.3-9.2,60.4-13.8"/>
	<path class="st3" d="M798.1,1524c58-14.8,116.6-27,175.7-36.5c16.3-2.6,35.5-4.2,47.1,7.7c7.9,8.1,9.8,20.6,8.4,31.9
		c-1.4,11.3-5.5,22-8,33.1c-6.1,27.7-1.2,56.6,5,84.4c5.7,25.3,11.6,54.6-4.7,74.7"/>
	<path class="st3" d="M870.6,1719.5c-2.8,14.4-3.2,29.2-1,43.7c3.3-0.2,6.5-0.5,9.8-0.7c2.5-14.2,3.5-28.5,3.2-42.9
		c-1.7,0-3.5-0.1-5.2-0.1"/>
	<path class="st3" d="M988.2,1699.8c-1.1,11.4-2.2,22.8-3.3,34.2c-0.3,2.7-0.4,5.8,1.5,7.7c2.5,2.6,7.2,1.3,9.3-1.7
		s2.4-6.7,2.6-10.3c0.5-9.2,0.9-18.5,1.4-27.7c0.1-1,0.1-2.2-0.7-2.9c-0.7-0.7-2.4-0.4-2.2,0.7"/>
	<path class="st3" d="M817,1535.5c57.7-11,115.3-21.9,173-32.9"/>
	<path class="st3" d="M825.1,1589.8c-2.4,17.9-1.7,36.2,2.1,53.8"/>
	<path class="st3" d="M769.3,1557c13.1,86.8,12.1,175.7-3,262.1"/>
	<path class="st3" d="M787.9,1563.4c4.9,90.5,9.5,181,13.7,271.5"/>
	<path class="st3" d="M714.7,1848.7c18.7-5,36.2-14,51.1-26.3c6.8,18.1,25.4,29.3,44,34.4c33.5,9.2,69.1,3.3,102.8-5.2
		c33.6-8.5,67.1-19.6,101.8-20.8c3.8-0.1,8.2-0.5,10.3-3.6c1.3-2,1.4-4.5,1.3-6.9c-0.6-29.7-4.1-59.4-10.3-88.5"/>
	<path class="st3" d="M835.1,1846.1c35.3,6.6,70.3-12.2,106.2-13.7"/>
	<path class="st3" d="M767.2,1543"/>
	<path class="st3" d="M829.7,1655.2"/>
	<path class="st3" d="M778.3,1811c-1.1,3.6-0.8,7.6,0.8,11.1"/>
	<path class="st4" d="M839.8,1522.1c2.4-0.4,4.8-0.8,7.1-1.3c0.7-0.1,1.5-0.3,2-0.8c0.4-0.5,0.5-1.1,0.6-1.7c0.8-4.6,0.9-9.3,2-13.8
		c2.1-8.4,8-15.8,15.8-19.7c3.6-1.8,7.5-2.9,11.4-3.9c9.1-2.3,18.3-4.2,27.5-6c5.4-1.1,10.9-2.2,16.4-2.4c3-0.1,6.2,0.1,8.9,1.4
		c3.1,1.5,5.4,4.4,7,7.4c2.6,4.7,4,10,4.9,15.4c0.4,2.5,1.3,5.6,3.9,5.9c1.6,0.1,3-1.1,3.6-2.6c0.6-1.5,0.5-3.1,0.3-4.7
		c-0.7-6.4-2.3-12.7-4.4-18.7c-1.4-4.1-3.3-8.3-6.8-10.7c-4-2.7-9.3-2.6-14.1-2.3c-22.5,1.4-45.1,4.5-66.3,12.2
		c-4.3,1.6-8.6,3.4-11.8,6.6c-4.6,4.7-6.1,11.6-7.4,18.1c-1.3,6.7-2.6,13.5-2.4,20.4"/>
	<path class="st3" d="M2012,976c158.5,2.2,282.6,21.9,282.6,45.8c0,25.4-139.7,46-312,46s-312-20.6-312-46
		c0-22.6,110.7-41.4,256.7-45.3"/>
	<path class="st3" d="M2292.1,1060.7c-19.7,22.6-150.7,40.1-309.5,40.1c-137.4,0-254-13.1-295.7-31.3"/>
	<path class="st3" d="M1670.1,1023.6c-0.3,10.1-0.7,20.1-1,30.2c-0.1,2.3-0.1,4.6,0.5,6.8c0.6,2.2,2.1,4.3,4.2,5.1"/>
	<path class="st3" d="M2297.1,1022.4c-0.6,10.3-0.8,20.7-0.7,31"/>
	<line class="st3" x1="1933.6" y1="1101.8" x2="1933.6" y2="1840.8"/>
	<line class="st3" x1="1999.6" y1="1101.8" x2="1999.6" y2="1840.8"/>
	<path class="st3" d="M1937.1,1846.9c17.7,6.7,37.7,7.1,55.5,0.9"/>
	<path class="st3" d="M1999.6,1830.3c70.4,2.2,123,11,123,21.5c0,12.2-70.7,22-158,22c-87.3,0-158-9.8-158-22
		c0-10.7,54.6-19.6,127-21.6"/>
	<path class="st3" d="M2118.2,1891.3c-24,7.9-88.1,13.4-153.6,13.4c-62.1,0-123.8-5-149.6-12.2"/>
	<path class="st3" d="M1803.8,1858.3c-0.7,9.3-0.7,18.6-0.1,27.9"/>
	<path class="st3" d="M2126.4,1860.4c-0.2,7.9-0.4,15.8-0.7,23.7"/>
	<line class="st3" x1="1949.6" y1="1274.8" x2="1949.6" y2="1585.8"/>
	<line class="st3" x1="1985.6" y1="1682.8" x2="1985.6" y2="1724.8"/>
	<line class="st3" x1="1918.6" y1="914.8" x2="1933.6" y2="1021.8"/>
	<line class="st3" x1="2020.6" y1="914.8" x2="2004.7" y2="1021.8"/>
	<path class="st3" d="M1933.5,1021.8L1933.5,1021.8c23.4,5.9,47.8,5.9,71.2,0h0"/>
	<path class="st3" d="M1918.7,913.8L1918.7,913.8c33.5,5.9,68.4,5.9,101.9,0l0,0"/>
	<path class="st3" d="M1958.8,868.4c-10.1-40.1-4.4-84.1,15.7-120.3"/>
	<path class="st3" d="M1976,747.3c13.7,19.5,21.1,43.1,23.2,66.9c2.1,23.8-0.8,47.8-6.5,71"/>
	<path class="st3" d="M1976.4,891.1c-2.4-24.8-3.6-49.7-3.6-74.6"/>
	<path class="st3" d="M1995.5,895.9c7.2-24.9,24.8-46,46.4-60.1c21.6-14.2,47.1-21.8,72.7-25.2c-27.4,34.6-56.9,70.8-98.5,85.9"/>
	<path class="st3" d="M2027.6,872.3c12.4-12.1,26.5-22.4,41.7-30.8"/>
	<path class="st3" d="M1939.5,905.7c-18.8-6.6-37.4-14.7-52.5-27.4c-23.2-19.5-35.8-48.1-55.6-70.8c20.3,3.7,39.2,12.3,57.9,20.8
		c11.2,5.1,22.5,10.3,32.7,17.2c21.8,14.8,37.5,37.2,47.1,61.3"/>
	<path class="st3" d="M1883.1,840.9c26.8,21.1,52.5,43.6,77,67.4"/>
	<path class="st3" d="M1934.4,925.1c20.5,5.3,42.1,6.2,63,2.7"/>
	<path class="st3" d="M1950.6,1015.2c6.5,1.4,13.2,2,19.8,1.7"/>
	<path class="st3" d="M2122.1,1018.7"/>
	<path class="st3" d="M1971.2,1365.3"/>
	<path class="st3" d="M1950.2,1778.9"/>
	<path class="st3" d="M2066.2,1882.6c-0.7-0.1-0.6,1.3,0,1.1"/>
	<path class="st5" d="M2000.5,1114.9c0-1.2,0-2.2,0-3c0.1-9.4-1.1-10.7-10.6-11.7l-0.3,0c-15.7-1.7-56.8,1.4-57,3
		c-0.1,0.8,0.5,26.2,0.5,26.2c16.8,10.8,36.1,13.1,55.2,7.5c3.2-1,6.6-2.1,9.6-3.6C1997.9,1133.2,2000.6,1122.8,2000.5,1114.9z"/>
	<path class="st3" d="M708,1928.8c6.1-3.9,14-4.7,20.8-2.3c2.3,0.8,4.4,2,6.8,2.5c8.5,2,18.3-4.1,25.6,0.7"/>
	<path class="st3" d="M954.6,1903.7c9.9-4.3,21.6-4.2,31.5,0.3c2.6,1.1,5.1,2.6,7.9,2.6c2.3,0,4.5-1.1,6.7-2
		c13.9-5.8,29.9-6.2,44-1.2"/>
	<path class="st3" d="M1179.1,1939.2c11.9-4.9,25.6-5.1,37.7-0.6"/>
	<path class="st3" d="M1519.1,1950.7c7.3-2.6,15.3-3.1,22.8-1.5"/>
	<path class="st3" d="M1594.6,1922.3c15.5-6.2,33.2-6.6,49-1.2c3.3,1.1,6.5,2.5,9.9,2.7c4.5,0.3,8.8-1.3,13.2-2.5
		c12.2-3.2,25.4-2.7,37.2,1.6"/>
	<path class="st3" d="M1673.8,1870.7c6.5-0.9,13.1-0.7,19.5,0.5"/>
	<path class="st3" d="M1206.1,1821.1c8.2-4.8,18.7-5.2,27.2-1.2"/>
	<path class="st3" d="M938.7,1199.8c-1,2.5-0.4,5.6,1.4,7.6c1.9-0.7,3.4-2.2,4-4c-0.5-1.5-2.4-2.3-3.8-1.6"/>
	<path class="st3" d="M1780.2,1221.8c0.1,0.6,0.1,1.2,0.2,1.8"/>
	<path class="st3" d="M2158.6,1420.4c-2.2,0.9-3.4,3.7-2.5,5.9c1.3,0.3,2.6-1.1,2.2-2.3"/>
	<path class="st3" d="M1706.7,634.2c-1.5,0.4-1.7,2.9-0.3,3.6c1.7-0.5,3.1-1.9,3.6-3.6c-1.8-1.4-4.8,1.4-3.6,3.3"/>
	<path class="st3" d="M1035.8,367.1c-2,0.7-1.9,4.1,0,4.8C1036.5,370.2,1037.4,367.9,1035.8,367.1"/>
</g>
<g id="color_outline">
	<g>
		<path class="st6" d="M785.7,471.3c12.2,82.2,19.7,165,22.4,248"/>
		<path class="st6" d="M787.5,457.1c166.2-6.7,333.9,28.3,483.6,101"/>
		<path class="st6" d="M1276.9,555c14.5-10.7,31-18.4,47.5-25.7c108.4-47.8,224.6-77.9,342.6-88.6"/>
		<path class="st6" d="M1272.8,560.8c-14.8,160.1-18.8,321.1-11.9,481.7"/>
		<path class="st6" d="M1677.9,440c-42.5,93.8-42.4,200.5-41.5,303.5"/>
		<path class="st6" d="M1630.9,842.1c-0.6,42.6-1.3,85.2-1.9,127.9c-0.4,28.2-0.8,56.9,7,84"/>
		<path class="st6" d="M1568.2,1078.3c22.5-2.3,44.8-7.4,66.1-15.1"/>
		<path class="st6" d="M810.1,805.4c1.9,95-5.1,190.2-20.8,283.8"/>
		<path class="st6" d="M806,1092.8c61-5.4,121.1,16.5,182.3,19.9c37.6,2.1,76-2.7,112.5,6.5"/>
		<path class="st6" d="M1279.4,544.7c20.6-22.8,49.2-36.4,77-49.4c85.4-39.8,171.8-80,264.1-99.1c2.1,15.3,4.2,30.7,6.3,46"/>
		<path class="st6" d="M834.3,444.8c-2.6-8.4-3.6-17.3-2.8-26"/>
		<path class="st6" d="M839.6,416.1c121.4-1.2,329.1,75.8,431,141.7"/>
		<path class="st6" d="M1331.5,578.6c89.3-4.4,170.9-52,259.1-66.6"/>
		<path class="st6" d="M1345.3,625.2c79.3-25.9,160.1-47.2,241.9-63.8"/>
		<path class="st6" d="M1319.6,756.1c23.7-10.3,48.8-17.4,74.4-21"/>
		<path class="st6" d="M1318,785.7c22.6-7.1,45.6-12.7,69-16.8"/>
		<path class="st6" d="M1324.6,826c19.2-5.4,38.4-10.8,57.6-16.2"/>
		<path class="st6" d="M1315.7,875.3c21.2-9.3,43.7-15.7,66.7-18.8"/>
		<path class="st6" d="M1322.4,909.4c16.3-6.7,33.3-11.6,50.6-14.4"/>
		<path class="st6" d="M1467.7,722.8c17.9-1.6,35.7-4.8,53-9.5"/>
		<path class="st6" d="M1463.3,769.2c19.2-7.3,39.3-12.3,59.7-14.7"/>
		<path class="st6" d="M1465.5,806.2c19.2-4.7,38.4-9.5,57.6-14.2"/>
		<path class="st6" d="M1460.9,851.9c18.5-7.5,37.8-13.1,57.5-16.7"/>
		<path class="st6" d="M1470,893.1c11.7-4.6,24.4-6.9,36.9-6.7"/>
		<path class="st6" d="M1606.1,870.2c-29.2,15.6-54.3,38.6-72.5,66.2"/>
		<path class="st6" d="M1596.6,897.6c-15.9,16.3-29.1,35.1-39.1,55.6"/>
		<path class="st6" d="M1059.5,685.7c34.1,2,67.8,9.4,99.6,21.9"/>
		<path class="st6" d="M1054.9,727.3c33,7.6,65.5,17.3,97.2,29.1"/>
		<path class="st6" d="M1050.3,793.4c30.4,2.4,60.6,8.2,89.8,17.2"/>
		<path class="st6" d="M1052.5,847.6c27.7,5.3,55.4,10.5,83.1,15.8"/>
		<path class="st6" d="M1066.4,902.5c22.4,0.2,44.9,2.5,66.9,6.9"/>
		<path class="st6" d="M874.7,736.6c25.9-12,53.7-19.8,82.1-22.8"/>
		<path class="st6" d="M884.1,763c18.6,3.1,36.6,10.1,52.3,20.5"/>
		<path class="st6" d="M859,516.4c5.2,30.8,6.1,62.3,2.6,93.3"/>
		<path class="st6" d="M865.1,615.7c50.4,6.4,100.6,15,150.3,25.6"/>
		<path class="st6" d="M862,515.8c53.3,3.1,106.2,12.8,157.1,28.7c0.7,31.3,1.4,62.5,2,93.8"/>
		<path class="st6" d="M994.8,563.9c-7.8,5.9-14.4,13.5-19.2,22"/>
		<path class="st6" d="M994.7,581.2c-4.7,5.3-9.5,10.5-14.2,15.8"/>
		<path class="st6" d="M818.1,1067.8c14.3-16,32.1-28.8,51.8-37.4"/>
		<path class="st6" d="M835,1075.3c22.1-5.7,45.4-6.6,67.8-2.6"/>
	</g>
</g>
</svg>
