<svg width="1602" height="1676" viewBox="0 0 1602 1676" fill="none" xmlns="http://www.w3.org/2000/svg">
<path d="M502.2 179.3C501 192.5 530.5 221 538 200.9C544.7 183.2 504.2 157.7 502.2 179.3Z" fill="#EBF2FF"/>
<path d="M635.3 180C635.8 173.4 632.8 167 624.8 169.6C617 172.1 611 181.3 609.7 189.1C608.4 196.5 613.9 202.8 621.5 200.1C628.9 197.5 633.7 189.1 635 181.7C635.1 181.2 635.2 180.6 635.3 180Z" fill="#EBF2FF"/>
<path d="M563.5 244.6C564 251.6 572.2 253.7 578 253.4C583.3 253.2 591.4 249 590.7 242.7C589.9 234.3 562.7 233.2 563.5 244.6Z" fill="#EBF2FF"/>
<path d="M467 109C478.5 102.1 500.9 101.4 520.5 106.6C543 112.6 537.1 127.1 593.6 108.8C604.8 105.2 626.3 105.8 638 107.8C645.2 109 657.6 114.1 663.9 108.4C678.6 95.2 638.6 81.2 632.1 75.9C625.8 70.9 624 62.2 619 56.2C600.7 34.3 582.4 31.2 557.4 33.5C531.9 35.9 503.1 43.2 483.9 61.1C476.3 68.2 448.5 103.6 467 109Z" fill="#EBF2FF"/>
<path d="M955.9 521C963.9 510.1 967.5 496.5 966.8 483C966.3 474.8 961.8 459.4 950.6 468.2C940.2 476.4 939.3 493.6 939 505.8C938.9 511.4 937.7 520.2 943.4 523.9C947.5 526.6 953.1 524.8 955.9 521Z" fill="#EBF2FF"/>
<path d="M98.9 516.9C101.2 502.3 102.5 480.3 94.9 466.8C90.1 458.3 76.9 456.6 72.9 466.6C68.4 478 75.2 499.1 79 510.1C80.9 515.6 82.2 522.1 88.7 523.2C92.8 524.1 98.2 521.4 98.9 516.9Z" fill="#EBF2FF"/>
<path d="M855.5 829.2C877.3 834.4 864.5 789.9 860.9 781.6C853.8 765.2 843.5 748.1 829.9 736.3C800 710.3 764.3 721.3 729.2 729.4C723.9 730.6 696.8 733.6 705.7 747.3C734.3 791.3 817.9 820.3 855.5 829.2Z" fill="#EBF2FF"/>
<path d="M423 929.7C443.7 922.8 461.5 896.3 469.9 877.4C477.1 861.1 482.1 826.2 452.7 832.5C429.7 837.5 417.9 856.2 410.8 877.5C407 888.8 395.3 938.9 423 929.7ZM449.7 860.3C450.2 859.8 450.2 859.8 449.7 860.3V860.3ZM422.7 914.9C423.1 915.6 422.6 916.6 422.7 914.9V914.9Z" fill="#EBF2FF"/>
<path d="M642.1 857.9C636.4 859.6 620.8 856.9 624.1 869.6C627.5 882.4 651.3 881.7 660.5 886.7C671.5 892.7 674.1 905.5 678 916.5C683.9 933.3 690 950 695.9 966.8C701.2 981.8 706.5 996.7 712.1 1011.6C718.1 1027.4 724.3 1042.9 722.5 1060C719.1 1092.4 715.8 1122.2 721.6 1154.7C726.8 1183.7 736.8 1213.3 757.5 1235C764.5 1242.3 777.6 1251.7 781.1 1236.3C784.3 1222.5 776 1202.9 771.4 1190.1C760.5 1159.9 751.3 1130.8 747.6 1098.7C744 1067.2 745.9 1035.3 739.6 1004.1C732.2 966.8 718.2 930.8 706.5 894.7C702.5 882.5 699.9 859.6 689.2 851.1C677.6 841.8 654.3 854.2 642.1 857.9ZM681.2 875.7C682.4 878.9 683.6 882.1 684.7 885.3C683.1 882.5 681.1 880 678.9 877.7C679.6 877 680.4 876.3 681.2 875.7Z" fill="#EBF2FF"/>
<path d="M864 884.4C850 889.8 819.4 895.1 814.9 912.2C809.5 932.5 836.4 937.2 850.5 934.7C866.1 932 886.6 918.7 887.5 901C888.3 884.5 876.6 879.5 864 884.4Z" fill="#EBF2FF"/>
<path d="M621.4 1330.4C655.7 1360.8 675.3 1306.5 678.2 1279.9C682.3 1242.3 674.7 1203.1 658.3 1169.2C654.9 1162.2 651.7 1152.6 643.9 1149.9C635 1146.9 626.3 1152.6 621.9 1159.8C612.6 1175 608.9 1196.2 605.8 1213.4C599.4 1247.8 591.6 1304 621.4 1330.4Z" fill="#EBF2FF"/>
<path d="M633.7 891.9C611.6 935 613.2 983.8 619.2 1030.5C622.3 1054.9 626.6 1079.1 629.1 1103.6C629.8 1110.6 628 1122 635.5 1125.7C640.6 1128.2 646.3 1125.9 648.1 1120.7C650.7 1113.4 646.4 1098.1 645.4 1090.6C644 1079.7 642.2 1068.8 640.6 1057.9C637 1034.4 633.3 1010.9 632.5 987.1C631.8 965.5 633.6 943.6 640.2 922.9C642.5 915.5 652 902.9 650.1 895.1C648.3 887.5 637.7 884 633.7 891.9Z" fill="#EBF2FF"/>
<path d="M642.4 1423.4C661.5 1433.9 684.3 1442.8 706.4 1444.4C724.9 1445.7 738.1 1427 719.9 1414.7C704.8 1404.4 681.8 1401.5 664.4 1397.2C631.6 1389.1 636.2 1420 642.4 1423.4Z" fill="#EBF2FF"/>
<path d="M676.5 1492.2C690.3 1500.7 735.3 1508.3 714.5 1480.7C707.7 1471.6 694.3 1471.3 683.5 1474.2C675.9 1476.3 665.8 1485.7 676.5 1492.2Z" fill="#EBF2FF"/>
<path d="M711.6 1575.1C724 1575.2 737.4 1573 745.4 1574.1C758.9 1576.1 779.3 1585.2 785.8 1566.7C790.8 1552.5 774.1 1540.2 763.2 1535C745.6 1526.5 724.6 1525.7 706.5 1533.2C697.2 1537.1 683.8 1544.3 683 1555.8C682 1571.4 699.8 1575 711.6 1575.1Z" fill="#EBF2FF"/>
<path d="M648.5 1568C650 1553.2 631.7 1513 623.2 1504C613.5 1509.5 621.4 1535.1 624.2 1543.3C627.1 1551.8 639.7 1575.4 648.5 1568Z" fill="#EBF2FF"/>
<path d="M781.3 1610.4C757.6 1601.2 732.4 1606.4 707.9 1608.3C699.5 1608.9 691.1 1610.3 682.6 1609.4C678.5 1609 674 1608.1 670.7 1605.5C666.2 1602 666.6 1595.1 662.6 1591.2C657.1 1585.8 648.2 1590 647.6 1597.4C646.4 1610.9 660.8 1621.7 672.1 1624.8C702.6 1633.1 733.9 1618.2 764.7 1624.4C771 1625.7 778.9 1630.7 784.6 1625.7C790.2 1620.8 787.9 1612.9 781.3 1610.4Z" fill="#EBF2FF"/>
<path d="M926.5 1249.3C937.4 1244.6 952.5 1238.7 951.4 1224.4C950.3 1209.5 935.2 1204.2 922.6 1203.9C913.6 1203.6 870.9 1204.8 858.6 1209.4C849.7 1212.7 841 1219.1 839.7 1229.2C839.4 1231.4 839.5 1233.7 839.9 1235.9C826.7 1221.1 809.2 1265.4 805.4 1273.7C790 1307.5 809.2 1528.4 810.2 1553.9C810.8 1568.6 816.9 1568.5 830.1 1567.8C838.5 1567.4 855.8 1570.3 860.3 1561.2C864 1553.6 858.4 1533.5 857.5 1525C856.3 1512.3 855.1 1499.5 854 1486.8C851.8 1461.3 849.9 1435.8 848.3 1410.3C846.5 1381.1 845 1351.9 843.9 1322.7C843.4 1309.5 843 1296.2 842.6 1283C842.3 1271.2 839.6 1255.7 842.1 1244.4C847.9 1259.3 857.8 1270.6 874.9 1267.6C892.5 1264.4 910.3 1256.3 926.5 1249.3Z" fill="#EBF2FF"/>
<path d="M952.5 1275.8C944 1281.1 949.1 1292.9 958.2 1292.5C960.7 1292.4 964.3 1290.4 967 1290.1C973.4 1289.4 984.7 1287.9 978.7 1277.3C973.9 1268.8 959.2 1271.6 952.5 1275.8Z" fill="#EBF2FF"/>
<path d="M895 1416C902.3 1412.9 909.7 1410.2 917.2 1407.7C922.1 1406.1 930.7 1405.4 934.1 1401.4C939 1395.6 934.7 1387.1 927.7 1386.2C917.4 1384.9 897.2 1394.4 888.3 1399.4C877.4 1405.6 882.4 1421.4 895 1416Z" fill="#EBF2FF"/>
<path d="M1142.8 1333.9C1104.1 1344.1 1065.5 1354.3 1026.8 1364.4C1016.9 1367 1007 1369.6 997.1 1372.2C990.6 1373.9 978.4 1374.7 973.1 1378.9C964.4 1385.7 971.3 1395.4 980.4 1395.2C988.8 1395 999.2 1390.2 1007.4 1388.1C1017.3 1385.5 1027.2 1382.9 1037.1 1380.3C1056 1375.3 1074.9 1370.4 1093.7 1365.4C1103.6 1362.8 1113.5 1360.2 1123.4 1357.6C1130.7 1355.7 1144.2 1354.8 1150.1 1350.2C1157.4 1344.5 1152.8 1331.3 1142.8 1333.9Z" fill="#EBF2FF"/>
<path d="M591.6 1129.9C578.8 1126.4 563.4 1132.2 550.4 1132.9C538.4 1133.5 526.4 1133.1 514.5 1132.1C501.1 1131.1 482.2 1128.2 468.9 1126.6C467.3 1126.4 482.6 1057 443.6 1057.9C428.3 1058.2 421 1065.4 420.1 1076.3C418.8 1090.7 418.6 1105.2 417.9 1119.6C405 1114.5 391.5 1122.2 388.3 1135.4C385.3 1147.8 391.8 1160.4 401.4 1168C404.3 1170.3 408.8 1171.6 411.4 1174C416.4 1178.6 393.2 1550 397.4 1555.5C403.5 1563.5 434.3 1562.6 440.5 1555C445 1549.4 459 1182.1 465.6 1177.1C471.4 1172.7 537.7 1183.2 559.6 1180.1C575.9 1177.8 595.8 1177.9 602.6 1160.1C606.8 1148.9 605.1 1133.7 591.6 1129.9Z" fill="#EBF2FF"/>
<path d="M439.3 1058.1C489.2 1056.3 539 1056.8 588.8 1058.3C598.2 1058.6 605.8 1057.4 608.1 1046.6C609.9 1037.6 604.9 1028 597.3 1023.3C583.6 1014.6 564.7 1019.8 549.7 1020.6C524.3 1022 498.8 1020.3 473.4 1018.7C452.3 1017.4 429.2 1016 411.3 1003.6C404.1 998.6 397.8 991.8 394.3 983.7C390.6 975.2 393.5 965.7 388.4 958.3C372.3 935 361.4 968.1 357.2 982.3C350.8 1004.1 352.7 1029.9 371 1045.6C389.9 1061.9 416.4 1058.9 439.3 1058.1Z" fill="#EBF2FF"/>
<path d="M321.8 1547.6C337.2 1544.9 310 1452.5 316.8 1444.6C353.9 1401.6 313.7 1311.7 321.2 1278.8C326.1 1257.3 337.1 1228.8 317.5 1211C294.4 1190.1 253.3 1202.9 226.6 1207.3C199.2 1211.8 171.8 1216.3 144.5 1220.7C116.8 1225.1 77.6 1220.9 55.7 1241.8C33.3 1263.1 37.9 1309.7 36.5 1337.7C33.9 1391.5 33.3 1446.1 22.4 1499.1C18 1520.7 -8.10003 1568.2 34 1553C57.2 1544.6 74.5 1550.8 97.1 1560.1C167.6 1589.1 250.5 1559.8 321.8 1547.6Z" fill="#EBF2FF"/>
<path d="M1586.6 730C1530.3 711.6 1312.6 694.7 1313.7 701.2C1315.3 710.6 1311.7 713 1310.1 725.1C1307.7 742.9 1277.1 742 1260.3 741.2C1243.7 740.4 1221.5 730.5 1227.1 710C1229.8 700.3 1024.7 705.3 985.5 725.5C964 736.6 1010.4 747.5 1016.5 748.9C1107.8 770.6 1201.8 781.5 1295.7 781.1C1348.4 780.9 1401.2 777.2 1453.4 770C1480.6 766.3 1507.6 761.6 1534.4 756C1546.9 753.4 1559.4 750.6 1571.8 747.5C1577.9 746.3 1601 734.8 1586.6 730Z" fill="#EBF2FF"/>
<path d="M1250.1 621.5C1260.5 627.6 1264.8 614.6 1261.2 607.4C1256.4 597.4 1247.1 588 1239.5 580C1222.5 562 1202 546.6 1179.2 537.1C1172.3 534.2 1159.4 531 1161.4 544C1163 554.1 1179.1 566.1 1186.1 573C1205.4 591.7 1226.9 608 1250.1 621.5Z" fill="#EBF2FF"/>
<path d="M1275.6 620C1280.4 622.9 1286.5 620.2 1288.6 615.2C1296.3 636.9 1337 598 1344.6 592C1356.1 582.8 1367.5 573.5 1378.8 564C1385.6 558.3 1404.9 547.1 1405.2 537.6C1405.5 526.1 1394.5 528.1 1387.7 531.2C1382.2 533.7 1376.8 536.5 1371.5 539.5C1368.7 541.1 1365 544.7 1361.8 545.5C1359.7 546 1356.9 544.2 1354.3 544.9C1344.1 547.4 1331.5 563.6 1324 570.8C1312.8 581.4 1302.2 592.5 1292 604.1C1298.4 576.7 1294.8 547.8 1292.6 520C1291.7 509.2 1293.9 489.9 1288.8 480.3C1282.7 468.8 1270.2 478.1 1267.8 486.7C1260.6 512.2 1260.2 542 1259 568.4C1258 586.5 1257.7 609.3 1275.6 620ZM1277.3 561C1277.6 569.2 1277.5 577.4 1276.7 585.5C1276.2 577.4 1276.7 569.2 1277.3 561Z" fill="#EBF2FF"/>
<path d="M1297.1 825.6C1297.4 813.1 1249.4 816.1 1244.2 825.3C1239.5 833.5 1237.1 1267.6 1235.8 1372.1C1235.1 1424.8 1234.5 1477.4 1233.8 1530.1C1233.7 1539.4 1230.1 1553 1240.2 1557.8C1250.4 1562.7 1267.2 1561.3 1278.1 1560.1C1292.6 1558.5 1297.5 1556.1 1297.1 1541C1296.7 1527.1 1296.4 1513.2 1296.1 1499.4C1293.7 1393.2 1292.5 1287 1292.5 1180.8C1292.5 1062.4 1294.1 944 1297.1 825.6Z" fill="#EBF2FF"/>
<path d="M1407.9 1579.5C1317 1602.1 1221.2 1602.5 1130.2 1580.5C1123.7 1578.9 1115.3 1574.7 1110.4 1581.4C1107.2 1585.7 1108.4 1591.2 1112.5 1594.3C1119.2 1599.4 1135.2 1600.2 1143.5 1602C1155.7 1604.5 1167.9 1606.7 1180.2 1608.5C1226.7 1615.2 1273.9 1616.6 1320.7 1612.4C1345.7 1610.2 1370.6 1606.4 1395.2 1601.1C1401.9 1599.6 1417 1599.4 1419 1590.7C1420.4 1584.1 1414.3 1578 1407.9 1579.5Z" fill="#EBF2FF"/>
<path d="M65.6 1638.4C49.4 1632.4 31.6 1630.9 14.6 1633.9C6.99999 1635.2 -7.19998 1643.6 5.00002 1651.6C9.90002 1654.9 16.6 1651.5 21.9 1650.9C30 1649.9 38.4 1650.2 46.4 1651.7C53.4 1653 62.7 1659 68.9 1653.7C74.5 1649 72.2 1640.8 65.6 1638.4Z" fill="#EBF2FF"/>
<path d="M345.9 1609.8C319.1 1613.6 294.7 1608.7 268.3 1606.9C260.8 1606.4 245.1 1604.7 242.8 1614.5C241.4 1620.2 245.9 1625 251.2 1625.8C256.1 1626.5 262 1624.3 267.2 1624.7C271.8 1625 276.5 1626 281 1626.7C294.2 1628.7 307.4 1629.9 320.8 1629.6C328.9 1629.4 346.6 1630.9 353.3 1626.1C361.8 1620.1 355.5 1608.4 345.9 1609.8Z" fill="#EBF2FF"/>
<path d="M539.6 1530.7C528.9 1525.6 510.6 1521.7 499.4 1528C493.6 1531.2 490 1540.4 497.3 1544.8C501.1 1547.1 504.7 1544.9 508.6 1544.1C515.9 1542.7 521.4 1543.6 528.4 1545.4C533.6 1546.8 539.4 1548.9 542.8 1543C545.1 1539.1 544 1532.8 539.6 1530.7Z" fill="#EBF2FF"/>
<path d="M522.9 1645.6C512.3 1643.7 491.9 1639.2 481.9 1644.5C472.9 1649.3 476.3 1659.7 485.3 1661.6C491.8 1663 500.4 1660.9 507.2 1661.5C511.7 1661.9 517.3 1664 521.6 1663C530.1 1661.1 533.1 1647.5 522.9 1645.6Z" fill="#EBF2FF"/>
<path d="M845.1 1656.1C836 1655.2 817.1 1653.3 809.1 1658.9C803.4 1662.9 804.2 1671.2 810.3 1674.5C814.3 1676.7 819.3 1674.8 823.5 1674.3C829.9 1673.5 836.3 1674.4 842.6 1674C854.4 1673.1 859.1 1657.4 845.1 1656.1Z" fill="#EBF2FF"/>
<path d="M1006.1 1626.3C980 1633.2 952.8 1625.9 926.4 1624.9C917.8 1624.6 897.2 1622 891.2 1629.6C881.2 1642.4 901 1643.7 908 1643C934.8 1640.4 961.4 1648.3 988.2 1647C996 1646.6 1013.3 1647.3 1016.7 1638.3C1019.2 1631.6 1012.9 1624.5 1006.1 1626.3Z" fill="#EBF2FF"/>
<path d="M975.4 1575.3C968.3 1575.3 964.2 1583.8 968.3 1589.6C972.9 1596.1 991.4 1594.7 998.2 1593.3C1004.4 1592.1 1009.4 1586.6 1005.9 1580C1001.4 1571.5 983.2 1575.3 975.4 1575.3Z" fill="#EBF2FF"/>
<path d="M915.5 185.6C861.4 193.9 808.2 206.5 755.9 222.5C703.6 238.5 652.4 257.6 601.4 277.2C582 284.6 569.3 288.1 549.6 280.4C518.4 268.2 489 252.5 457.2 241.3C375.9 212.7 291.1 195.8 205.4 187.7C188.9 186.2 172.5 184.7 156 183.3C146.8 182.5 119.9 176.2 121.5 188.6C140.6 338.3 135.2 450.9 136.4 451C144.3 451.3 151.8 456 154.5 463.9C155.9 468 155.3 472.7 151.5 475.3C147.3 478.2 141.6 477.2 136.7 475.7C136.7 476.9 136.7 478.2 136.7 479.4C147.1 481.1 164.5 489.3 156.2 500.9C152.2 506.5 144.6 507.6 137 507.4C137.2 559.1 136.2 610.7 133.8 662.3C131.8 706.1 128.9 749.9 125 793.6C124.7 797.5 127.9 801.8 131.6 802.3C228.3 814 316.3 833.7 408.9 825.8C453 822.1 492.9 798.4 533.8 781.7C580.9 762.5 628.3 745.1 677.4 731.6C723.4 718.9 793.2 700.5 830.9 741.6C844 755.9 852.6 776.1 872.4 782.6C914.5 796.4 910.4 731.7 908.8 707.5C904.6 646.2 904.2 584.8 903 523.4C900.9 414 894.2 303 926.5 196.8C928.7 189.4 921.9 184.6 915.5 185.6ZM319.4 346.8C319.3 347.1 319.2 347.4 319.1 347.6C315.7 354.2 295.1 347.4 289.5 346.5C276 344.4 262.4 342.2 248.9 340.1C221.8 335.8 194.7 331.5 167.6 327.3C168.1 295.1 167.1 262.9 164.7 230.8L165.7 232.1C213 240.8 260.3 249.7 307.5 258.7C319.7 261 317.4 283.2 318.1 292.3C319 304.5 319.4 316.8 319.4 329C319.4 333.3 320.9 342.4 319.4 346.8Z" fill="#EEE1FF"/>
<path d="M489.7 143.6C488.3 150.5 488.2 158.7 493.5 163.4C494.1 163.9 494.7 164.4 495.5 164.3C496.8 164.2 497.5 162.9 498 161.7C502.5 150 504.4 137.3 503.3 124.8" stroke="#003188" stroke-width="6" stroke-miterlimit="10" stroke-linecap="round" stroke-linejoin="round"/>
<path d="M462.5 120.8C461.7 127 461.5 133.3 462 139.5" stroke="#003188" stroke-width="6" stroke-miterlimit="10" stroke-linecap="round" stroke-linejoin="round"/>
<path d="M478.9 151.1C470.7 147.9 460.6 151.3 455.6 158.6C450.6 165.8 450.9 176.2 456 183.4C461.1 190.6 470.4 194.3 479.1 193.1" stroke="#003188" stroke-width="6" stroke-miterlimit="10" stroke-linecap="round" stroke-linejoin="round"/>
<path d="M469.2 171.2C472.7 172.6 476.2 173.9 479.8 175.3" stroke="#003188" stroke-width="6" stroke-miterlimit="10" stroke-linecap="round" stroke-linejoin="round"/>
<path d="M526.9 138.6C538.4 136.4 550.4 136.3 562 138.4" stroke="#003188" stroke-width="6" stroke-miterlimit="10" stroke-linecap="round" stroke-linejoin="round"/>
<path d="M546.4 155.8C546.5 158.5 546.6 161.2 546.7 163.9C547.4 162.4 546.8 157.4 546.4 155.8Z" stroke="#003188" stroke-width="6" stroke-miterlimit="10" stroke-linecap="round" stroke-linejoin="round"/>
<path d="M611.5 132.8C604.6 133.4 597.9 135.2 591.6 138.1C590.8 138.5 590 138.9 589.5 139.6C588.9 140.5 588.8 141.6 588.8 142.6C588.6 149.9 588.4 157.3 589.5 164.6C590.4 170.6 592.3 176.5 592.2 182.5C592.2 184 592 185.7 591.1 186.9C590.3 187.9 589.1 188.5 587.9 189C584 190.6 579.9 191.7 575.7 192.3" stroke="#003188" stroke-width="6" stroke-miterlimit="10" stroke-linecap="round" stroke-linejoin="round"/>
<path d="M604.3 153.1C604.4 155.8 604.5 158.5 604.5 161.2C605 158 605 155.2 604.3 153.1Z" stroke="#003188" stroke-width="6" stroke-miterlimit="10" stroke-linecap="round" stroke-linejoin="round"/>
<path d="M570.8 221.5C576.2 220.7 581.7 220.5 587.1 221" stroke="#003188" stroke-width="6" stroke-miterlimit="10" stroke-linecap="round" stroke-linejoin="round"/>
<path d="M474.1 203C473.7 208.2 474 213.4 475 218.4" stroke="#003188" stroke-width="6" stroke-miterlimit="10" stroke-linecap="round" stroke-linejoin="round"/>
<path d="M632.9 123.4C637.7 156.1 635.2 189.9 625.8 221.6" stroke="#003188" stroke-width="6" stroke-miterlimit="10" stroke-linecap="round" stroke-linejoin="round"/>
<path d="M466.9 110.7C491.1 101.7 518.9 102.8 542.2 113.8C546 115.6 549.8 117.7 554 117.9C557.7 118.1 561.3 116.8 564.8 115.7C594.9 106 627.4 103.9 658.4 109.7C661.3 110.3 664.4 110.9 667.3 110.2C670.2 109.5 673 107.2 673.1 104.2C673.2 101.2 670.8 98.7001 668.4 96.9001C656.4 87.4001 641.9 81.2001 626.8 79.1001" stroke="#003188" stroke-width="6" stroke-miterlimit="10" stroke-linecap="round" stroke-linejoin="round"/>
<path d="M466.7 109.4C518.2 88.9001 572.1 76.5001 627.4 79.1001" stroke="#003188" stroke-width="6" stroke-miterlimit="10" stroke-linecap="round" stroke-linejoin="round"/>
<path d="M463.1 100.2C462.6 74.7001 473.6 45.7 495.1 36.8C502.4 33.8 509.8 30.8001 517.6 29.2001C539.4 24.6001 562.1 20.0001 583.8 25.2001C605.5 30.4001 625.8 48.4001 625.9 70.7001" stroke="#003188" stroke-width="6" stroke-miterlimit="10" stroke-linecap="round" stroke-linejoin="round"/>
<path d="M540.2 3.40002C540.5 5.40002 540.8 7.40002 541.2 9.30002" stroke="#003188" stroke-width="6" stroke-miterlimit="10" stroke-linecap="round" stroke-linejoin="round"/>
<path d="M514 44.9C509.7 44.9 505.7 47.2 502.3 49.9C493 57.1 486.5 67.7 484.1 79.2" stroke="#003188" stroke-width="6" stroke-miterlimit="10" stroke-linecap="round" stroke-linejoin="round"/>
<path d="M96.5 420.6C88.3 423.2 81 428.7 76.3 435.9" stroke="#003188" stroke-width="6" stroke-miterlimit="10" stroke-linecap="round" stroke-linejoin="round"/>
<path d="M90.7 474.8C108.2 480.8 127.3 479.8 145.7 478.6C150.3 478.3 156 477.3 157.6 472.9" stroke="#003188" stroke-width="6" stroke-miterlimit="10" stroke-linecap="round" stroke-linejoin="round"/>
<path d="M153.6 460.1C137.3 451.5 118.6 448.6 100.2 446.8C91.9 446 83 445.4 75.6 449.3C68.2 453.2 63.4 463.2 67.9 470.2C69.1 472.1 70.9 473.8 70.8 476C70.7 477.3 69.9 478.4 69.3 479.5C64 488.4 65.4 500.8 72.5 508.4C74.3 510.3 76.4 512 77.1 514.5C77.6 516.2 77.3 518 77.3 519.8C77.4 530.7 88 538.4 98 542.9" stroke="#003188" stroke-width="6" stroke-miterlimit="10" stroke-linecap="round" stroke-linejoin="round"/>
<path d="M91.3 505.8C108.2 508.3 125.3 508.9 142.3 508.2C148.9 507.9 156.7 506.7 159.9 500.9C162.4 496.4 160.6 490 156.2 487.4" stroke="#003188" stroke-width="6" stroke-miterlimit="10" stroke-linecap="round" stroke-linejoin="round"/>
<path d="M945.6 432.8C955.3 434.3 961.5 443.5 966.6 451.9C970.6 458.5 974.6 465.2 976 472.7C977.4 480.2 975.8 488.8 969.9 493.7C978.4 500.6 976.6 516.2 966.9 521C971.5 524.2 970.8 531.8 966.9 535.9C963 540 957.2 541.5 951.8 542.9C935.1 547 917.5 551.1 901.1 546.2C899.5 545.7 897.9 545.1 897 543.8C894.3 540 899.4 535.5 903.7 533.8C913.9 529.8 924.5 527 935.3 525.5" stroke="#003188" stroke-width="6" stroke-miterlimit="10" stroke-linecap="round" stroke-linejoin="round"/>
<path d="M911 524.4C907.7 524.6 904.3 524.7 901.3 523.3C898.3 521.9 896 518.5 896.9 515.4C897.7 512.9 900.2 511.3 902.6 510.1C912.6 505 923.1 500.8 934 497.8" stroke="#003188" stroke-width="6" stroke-miterlimit="10" stroke-linecap="round" stroke-linejoin="round"/>
<path d="M947.7 461C930.2 463.4 913.2 469.4 897.9 478.4C895.8 479.6 893.6 481.2 893.1 483.5C892.3 487.4 896.6 490.2 900.3 491.5C920 498.1 941.5 492.9 961.6 487.6" stroke="#003188" stroke-width="6" stroke-miterlimit="10" stroke-linecap="round" stroke-linejoin="round"/>
<path d="M933.8 567.6C942.8 563.5 950.4 556.6 955.4 548.2" stroke="#003188" stroke-width="6" stroke-miterlimit="10" stroke-linecap="round" stroke-linejoin="round"/>
<path d="M394.8 846.6C386.7 876 382.2 906.4 381.2 936.9C380.9 947 381 957.3 384 966.9C390.4 987.5 409.4 1002.2 429.8 1009.1C450.2 1016 472.2 1016.4 493.7 1016.6C527.6 1017 561.5 1017.5 595.4 1017.9" stroke="#003188" stroke-width="6" stroke-miterlimit="10" stroke-linecap="round" stroke-linejoin="round"/>
<path d="M451.7 841.9C432.2 862.5 418.8 888.8 413.6 916.6" stroke="#003188" stroke-width="6" stroke-miterlimit="10" stroke-linecap="round" stroke-linejoin="round"/>
<path d="M459.7 858.2C452.9 868.5 447.4 879.5 443.3 891.1" stroke="#003188" stroke-width="6" stroke-miterlimit="10" stroke-linecap="round" stroke-linejoin="round"/>
<path d="M417.5 829.2C524.7 787.8 632.6 746.2 745.6 725.4C766.2 721.6 788.1 718.6 807.8 725.9C825.6 732.5 839.5 747 849 763.4C858.5 779.8 863.9 798.2 869 816.4C891.4 897.3 907.3 980.2 935.1 1059.4C949.4 1100.1 967 1141.4 963.9 1184.4" stroke="#003188" stroke-width="6" stroke-miterlimit="10" stroke-linecap="round" stroke-linejoin="round"/>
<path d="M616.4 830.2C611.9 832.2 607.9 835.8 606.1 840.4C604.3 845 604.9 850.7 608.1 854.3C613.3 860.2 622.6 859.3 630.3 857.8C647.8 854.4 665.1 850.4 682.3 845.6" stroke="#003188" stroke-width="6" stroke-miterlimit="10" stroke-linecap="round" stroke-linejoin="round"/>
<path d="M695.7 807.9C688.1 846.3 698.8 885.8 712.2 922.5C725.7 959.2 742.2 995.4 746.8 1034.3C749.7 1058.5 747.8 1083 749.9 1107.3C753.7 1152.2 770.9 1194.8 787.8 1236.6" stroke="#003188" stroke-width="6" stroke-miterlimit="10" stroke-linecap="round" stroke-linejoin="round"/>
<path d="M800.2 1230.9C815.9 1219.7 833.9 1211.7 852.7 1207.6C887 1200 923.3 1204.9 957.2 1195.6" stroke="#003188" stroke-width="6" stroke-miterlimit="10" stroke-linecap="round" stroke-linejoin="round"/>
<path d="M809 1206C841.8 1186.3 882.5 1187 920.7 1188.9" stroke="#003188" stroke-width="6" stroke-miterlimit="10" stroke-linecap="round" stroke-linejoin="round"/>
<path d="M879.1 886.2C864.7 897.3 847.3 905.2 830.6 912.7C843.8 911.9 857 911.2 870.2 910.4" stroke="#003188" stroke-width="6" stroke-miterlimit="10" stroke-linecap="round" stroke-linejoin="round"/>
<path d="M640.9 889C621 924 619.3 966.6 623.6 1006.7C627.9 1046.8 637.6 1086.3 638.5 1126.6" stroke="#003188" stroke-width="6" stroke-miterlimit="10" stroke-linecap="round" stroke-linejoin="round"/>
<path d="M605.5 1036.4C617.8 1101.5 602.6 1168.3 586.3 1232.5C575.9 1273.7 564.9 1316.1 571.1 1358.1" stroke="#003188" stroke-width="6" stroke-miterlimit="10" stroke-linecap="round" stroke-linejoin="round"/>
<path d="M632.9 1316.2C635 1287.7 619 1260.2 620.3 1231.6C620.4 1230.3 620.5 1228.7 621.6 1227.9C623.4 1226.6 625.8 1228.2 627.2 1229.9C637.1 1241.9 637.6 1261.6 651.4 1268.7C657 1233.4 647.5 1197.6 638.1 1163.1" stroke="#003188" stroke-width="6" stroke-miterlimit="10" stroke-linecap="round" stroke-linejoin="round"/>
<path d="M644.8 1063.2C645.3 1072.8 647.1 1082.4 650 1091.5" stroke="#003188" stroke-width="6" stroke-miterlimit="10" stroke-linecap="round" stroke-linejoin="round"/>
<path d="M867 923.4C868.3 923.4 869.7 923.4 871 923.4" stroke="#003188" stroke-width="6" stroke-miterlimit="10" stroke-linecap="round" stroke-linejoin="round"/>
<path d="M575.5 1368.9C635.8 1365.5 695 1394.3 755.1 1388.3" stroke="#003188" stroke-width="6" stroke-miterlimit="10" stroke-linecap="round" stroke-linejoin="round"/>
<path d="M762.3 1368.5C768.1 1330 776.4 1291.9 786.9 1254.5" stroke="#003188" stroke-width="6" stroke-miterlimit="10" stroke-linecap="round" stroke-linejoin="round"/>
<path d="M836.6 1223.4C845.9 1245.3 850.6 1269.1 850.3 1292.9C850.2 1302.3 849.3 1311.8 849.9 1321.2C851.6 1349 865.5 1374.3 879.1 1398.6" stroke="#003188" stroke-width="6" stroke-miterlimit="10" stroke-linecap="round" stroke-linejoin="round"/>
<path d="M948.4 1209.3C956.6 1224.9 963.5 1241.5 975.2 1254.7C988 1269.2 1006.2 1278.7 1025.4 1281C1042.6 1283.1 1060 1279.4 1077.3 1277.8C1094.6 1276.1 1113.1 1276.7 1127.7 1286C1148.8 1299.4 1155.6 1326.5 1160.8 1350.9" stroke="#003188" stroke-width="6" stroke-miterlimit="10" stroke-linecap="round" stroke-linejoin="round"/>
<path d="M1151 1356.5C1091.2 1375.1 1030.3 1390.3 968.7 1402C967.5 1402.2 966.2 1402.4 965.1 1401.9C964 1401.3 963.4 1400.1 962.9 1399C958.2 1388.7 953.4 1378.3 948.7 1368C947.4 1377.8 946 1387.5 944.7 1397.3C944.2 1401.1 943.5 1405.2 940.8 1408C938.5 1410.3 935.2 1411.2 932 1411.9L888.5 1422.7L881.5 1404.7" stroke="#003188" stroke-width="6" stroke-miterlimit="10" stroke-linecap="round" stroke-linejoin="round"/>
<path d="M885.2 1395.7C901.3 1393.1 917.3 1389.4 932.9 1384.5" stroke="#003188" stroke-width="6" stroke-miterlimit="10" stroke-linecap="round" stroke-linejoin="round"/>
<path d="M972.6 1375.3C1030.5 1362.6 1088.4 1349.8 1146.4 1337.1" stroke="#003188" stroke-width="6" stroke-miterlimit="10" stroke-linecap="round" stroke-linejoin="round"/>
<path d="M848.4 1239.9C880.7 1246.2 915.2 1240.7 943.9 1224.6" stroke="#003188" stroke-width="6" stroke-miterlimit="10" stroke-linecap="round" stroke-linejoin="round"/>
<path d="M852.2 1267.5C886.8 1272 922.9 1263.9 952.3 1245.2" stroke="#003188" stroke-width="6" stroke-miterlimit="10" stroke-linecap="round" stroke-linejoin="round"/>
<path d="M948.8 1280.1C959.1 1277.6 969.5 1275.1 979.8 1272.6" stroke="#003188" stroke-width="6" stroke-miterlimit="10" stroke-linecap="round" stroke-linejoin="round"/>
<path d="M962.9 1291C968.6 1288.3 974.7 1286.3 980.9 1285.3" stroke="#003188" stroke-width="6" stroke-miterlimit="10" stroke-linecap="round" stroke-linejoin="round"/>
<path d="M998.4 1255.9C1002.5 1235.9 1012 1216.9 1025.6 1201.7C1028 1199.1 1031.3 1196.3 1034.6 1197.4C1038.9 1198.8 1038.9 1204.9 1037.6 1209.2C1032.5 1226.5 1020.9 1241 1009.4 1254.9C1022.6 1243.8 1039.2 1236.8 1056.4 1235.1C1060.4 1234.7 1065.8 1235.7 1066.1 1239.7C1066.3 1242 1064.6 1243.9 1062.9 1245.5C1049 1258.2 1029.7 1262.9 1011.1 1266.2" stroke="#003188" stroke-width="6" stroke-miterlimit="10" stroke-linecap="round" stroke-linejoin="round"/>
<path d="M633.3 1392.8C635.8 1415.6 634 1438.8 628.3 1461C624.6 1475.3 619.3 1490.6 624.9 1504.2C627.2 1509.7 631 1514.4 634 1519.5C642.2 1533.6 643.4 1550.5 647.9 1566.2C652.4 1581.9 662.6 1598.1 678.7 1600.7" stroke="#003188" stroke-width="6" stroke-miterlimit="10" stroke-linecap="round" stroke-linejoin="round"/>
<path d="M689.1 1602.6C694.4 1604.4 700.2 1604.5 705.8 1604.3C730.4 1603.5 756.1 1598.7 779 1607.8" stroke="#003188" stroke-width="6" stroke-miterlimit="10" stroke-linecap="round" stroke-linejoin="round"/>
<path d="M713.6 1535.9C728 1532.1 743.1 1531.2 757.9 1533.1C763.6 1533.8 769.4 1535 774.3 1538C781.9 1542.7 786.5 1551.1 789.1 1559.7C793.1 1572.8 793.3 1587 789.7 1600.1" stroke="#003188" stroke-width="6" stroke-miterlimit="10" stroke-linecap="round" stroke-linejoin="round"/>
<path d="M753.6 1519.1C748.7 1512.7 743.8 1506.2 738.9 1499.8C736.6 1496.8 734.3 1493.8 733.1 1490.3C731.5 1485.8 731.6 1480.9 731.8 1476.1C732.3 1461.3 732.9 1446.4 733.4 1431.6" stroke="#003188" stroke-width="6" stroke-miterlimit="10" stroke-linecap="round" stroke-linejoin="round"/>
<path d="M642.8 1405.8C669 1414.4 696.4 1419.7 724 1421.4" stroke="#003188" stroke-width="6" stroke-miterlimit="10" stroke-linecap="round" stroke-linejoin="round"/>
<path d="M643.9 1432.2C668.1 1438.7 693 1442.4 718.1 1443.1" stroke="#003188" stroke-width="6" stroke-miterlimit="10" stroke-linecap="round" stroke-linejoin="round"/>
<path d="M678.1 1484.7C689.1 1482.5 700.6 1482.2 711.7 1483.8" stroke="#003188" stroke-width="6" stroke-miterlimit="10" stroke-linecap="round" stroke-linejoin="round"/>
<path d="M684 1498.4C692.6 1495.8 701.8 1495.2 710.6 1496.8" stroke="#003188" stroke-width="6" stroke-miterlimit="10" stroke-linecap="round" stroke-linejoin="round"/>
<path d="M619 1498.7C616.7 1508.9 614.4 1519.2 614.8 1529.7C615.2 1540.2 618.6 1550.9 626.2 1558.1C632.6 1564.2 641.4 1567.3 648.5 1572.6" stroke="#003188" stroke-width="6" stroke-miterlimit="10" stroke-linecap="round" stroke-linejoin="round"/>
<path d="M647.7 1575.4C646.2 1584.5 645.5 1593.8 645.7 1603C645.8 1606.5 646 1610.1 647.3 1613.4C650.9 1622.2 661.5 1625.7 670.9 1626.6C689 1628.3 707.1 1624.3 725.3 1624.9C740.2 1625.4 754.9 1628.9 769.7 1630.2C776.1 1630.8 783.3 1630.6 787.6 1625.9C790.9 1622.3 791.5 1617.2 791.9 1612.3" stroke="#003188" stroke-width="6" stroke-miterlimit="10" stroke-linecap="round" stroke-linejoin="round"/>
<path d="M370.2 964.4C358.9 982.7 355.2 1005.5 360 1026.5C361.7 1034 364.7 1041.6 370.5 1046.6C377.7 1052.9 387.8 1054.3 397.3 1055.3C459.6 1062 522.4 1063.5 585 1059.9" stroke="#003188" stroke-width="6" stroke-miterlimit="10" stroke-linecap="round" stroke-linejoin="round"/>
<path d="M368.6 1010.4C383.8 1016.3 399.7 1020.2 415.9 1022" stroke="#003188" stroke-width="6" stroke-miterlimit="10" stroke-linecap="round" stroke-linejoin="round"/>
<path d="M417.5 1061.9L392.6 1565.8H444.6L471.5 1063.2" stroke="#003188" stroke-width="6" stroke-miterlimit="10" stroke-linecap="round" stroke-linejoin="round"/>
<path d="M855.6 1405.8L863.5 1570.8H811.5L797.3 1305.2" stroke="#003188" stroke-width="6" stroke-miterlimit="10" stroke-linecap="round" stroke-linejoin="round"/>
<path d="M406.3 1123.7C395.3 1122.8 384.3 1131.4 382.5 1142.3C380.7 1153.2 388.4 1164.8 399.1 1167.5" stroke="#003188" stroke-width="6" stroke-miterlimit="10" stroke-linecap="round" stroke-linejoin="round"/>
<path d="M477.6 1177.2C513.3 1181.6 549.6 1181.6 585.4 1177.4" stroke="#003188" stroke-width="6" stroke-miterlimit="10" stroke-linecap="round" stroke-linejoin="round"/>
<path d="M480.4 1138.7C514.7 1143.1 549.5 1143.2 583.9 1139" stroke="#003188" stroke-width="6" stroke-miterlimit="10" stroke-linecap="round" stroke-linejoin="round"/>
<path d="M429.4 1081.1C428.1 1101 426.7 1120.9 425.4 1140.8" stroke="#003188" stroke-width="6" stroke-miterlimit="10" stroke-linecap="round" stroke-linejoin="round"/>
<path d="M483.4 1152.5C493.6 1153.1 503.8 1153.6 514 1154.2" stroke="#003188" stroke-width="6" stroke-miterlimit="10" stroke-linecap="round" stroke-linejoin="round"/>
<path d="M406.2 1553.2C413.5 1552.4 420.9 1552.8 428.1 1554.3" stroke="#003188" stroke-width="6" stroke-miterlimit="10" stroke-linecap="round" stroke-linejoin="round"/>
<path d="M822.8 1557.4C828.1 1556.9 833.5 1556.3 838.8 1555.8" stroke="#003188" stroke-width="6" stroke-miterlimit="10" stroke-linecap="round" stroke-linejoin="round"/>
<path d="M810.8 1315.7C811.4 1326.9 811.9 1338 812.5 1349.2" stroke="#003188" stroke-width="6" stroke-miterlimit="10" stroke-linecap="round" stroke-linejoin="round"/>
<path d="M439.2 1442.3C438.4 1450.1 437.6 1457.9 436.8 1465.7" stroke="#003188" stroke-width="6" stroke-miterlimit="10" stroke-linecap="round" stroke-linejoin="round"/>
<path d="M8.09998 1555.8C43.5 1463.9 23.3 1359.2 50.4 1264.6C53.5 1253.6 58.9 1241.2 70.1 1238.5C78 1236.6 86.4 1240.6 91.8 1246.7C97.2 1252.8 99.9 1260.7 102.1 1268.6C117.7 1324.4 108.5 1384.1 117.8 1441.3C119 1448.5 121.1 1456.6 127.7 1459.9C137.1 1464.6 149.5 1456.3 158.5 1461.6" stroke="#003188" stroke-width="6" stroke-miterlimit="10" stroke-linecap="round" stroke-linejoin="round"/>
<path d="M204.5 1455.6C224.6 1451 244.8 1446.4 264.9 1441.8" stroke="#003188" stroke-width="6" stroke-miterlimit="10" stroke-linecap="round" stroke-linejoin="round"/>
<path d="M99.1 1237C157.1 1222.2 215.7 1210 274.8 1200.5C291.1 1197.9 310.3 1196.3 321.9 1208.2C329.8 1216.3 331.7 1228.8 330.3 1240.1C328.9 1251.4 324.8 1262.1 322.3 1273.2C316.2 1300.9 321.1 1329.8 327.3 1357.6C333 1382.9 338.9 1412.2 322.6 1432.3" stroke="#003188" stroke-width="6" stroke-miterlimit="10" stroke-linecap="round" stroke-linejoin="round"/>
<path d="M171.6 1432.5C168.8 1446.9 168.4 1461.7 170.6 1476.2C173.9 1476 177.1 1475.7 180.4 1475.5C182.9 1461.3 183.9 1447 183.6 1432.6C181.9 1432.6 180.1 1432.5 178.4 1432.5" stroke="#003188" stroke-width="6" stroke-miterlimit="10" stroke-linecap="round" stroke-linejoin="round"/>
<path d="M289.2 1412.8C288.1 1424.2 287 1435.6 285.9 1447C285.6 1449.7 285.5 1452.8 287.4 1454.7C289.9 1457.3 294.6 1456 296.7 1453C298.8 1450 299.1 1446.3 299.3 1442.7C299.8 1433.5 300.2 1424.2 300.7 1415C300.8 1414 300.8 1412.8 300 1412.1C299.3 1411.4 297.6 1411.7 297.8 1412.8" stroke="#003188" stroke-width="6" stroke-miterlimit="10" stroke-linecap="round" stroke-linejoin="round"/>
<path d="M118 1248.5C175.7 1237.5 233.3 1226.6 291 1215.6" stroke="#003188" stroke-width="6" stroke-miterlimit="10" stroke-linecap="round" stroke-linejoin="round"/>
<path d="M126.1 1302.8C123.7 1320.7 124.4 1339 128.2 1356.6" stroke="#003188" stroke-width="6" stroke-miterlimit="10" stroke-linecap="round" stroke-linejoin="round"/>
<path d="M70.3 1270C83.4 1356.8 82.4 1445.7 67.3 1532.1" stroke="#003188" stroke-width="6" stroke-miterlimit="10" stroke-linecap="round" stroke-linejoin="round"/>
<path d="M88.9 1276.4C93.8 1366.9 98.4 1457.4 102.6 1547.9" stroke="#003188" stroke-width="6" stroke-miterlimit="10" stroke-linecap="round" stroke-linejoin="round"/>
<path d="M15.7 1561.7C34.4 1556.7 51.9 1547.7 66.8 1535.4C73.6 1553.5 92.2 1564.7 110.8 1569.8C144.3 1579 179.9 1573.1 213.6 1564.6C247.2 1556.1 280.7 1545 315.4 1543.8C319.2 1543.7 323.6 1543.3 325.7 1540.2C327 1538.2 327.1 1535.7 327 1533.3C326.4 1503.6 322.9 1473.9 316.7 1444.8" stroke="#003188" stroke-width="6" stroke-miterlimit="10" stroke-linecap="round" stroke-linejoin="round"/>
<path d="M136.1 1559.1C171.4 1565.7 206.4 1546.9 242.3 1545.4" stroke="#003188" stroke-width="6" stroke-miterlimit="10" stroke-linecap="round" stroke-linejoin="round"/>
<path d="M79.3 1524C78.2 1527.6 78.5 1531.6 80.1 1535.1" stroke="#003188" stroke-width="6" stroke-miterlimit="10" stroke-linecap="round" stroke-linejoin="round"/>
<path d="M140.8 1235.1C143.2 1234.7 145.6 1234.3 147.9 1233.8C148.6 1233.7 149.4 1233.5 149.9 1233C150.3 1232.5 150.4 1231.9 150.5 1231.3C151.3 1226.7 151.4 1222 152.5 1217.5C154.6 1209.1 160.5 1201.7 168.3 1197.8C171.9 1196 175.8 1194.9 179.7 1193.9C188.8 1191.6 198 1189.7 207.2 1187.9C212.6 1186.8 218.1 1185.7 223.6 1185.5C226.6 1185.4 229.8 1185.6 232.5 1186.9C235.6 1188.4 237.9 1191.3 239.5 1194.3C242.1 1199 243.5 1204.3 244.4 1209.7C244.8 1212.2 245.7 1215.3 248.3 1215.6C249.9 1215.7 251.3 1214.5 251.9 1213C252.5 1211.5 252.4 1209.9 252.2 1208.3C251.5 1201.9 249.9 1195.6 247.8 1189.6C246.4 1185.5 244.5 1181.3 241 1178.9C237 1176.2 231.7 1176.3 226.9 1176.6C204.4 1178 181.8 1181.1 160.6 1188.8C156.3 1190.4 152 1192.2 148.8 1195.4C144.2 1200.1 142.7 1207 141.4 1213.5C140.1 1220.2 138.8 1227 139 1233.9" fill="#003188"/>
<path d="M140.8 1235.1C143.2 1234.7 145.6 1234.3 147.9 1233.8C148.6 1233.7 149.4 1233.5 149.9 1233C150.3 1232.5 150.4 1231.9 150.5 1231.3C151.3 1226.7 151.4 1222 152.5 1217.5C154.6 1209.1 160.5 1201.7 168.3 1197.8C171.9 1196 175.8 1194.9 179.7 1193.9C188.8 1191.6 198 1189.7 207.2 1187.9C212.6 1186.8 218.1 1185.7 223.6 1185.5C226.6 1185.4 229.8 1185.6 232.5 1186.9C235.6 1188.4 237.9 1191.3 239.5 1194.3C242.1 1199 243.5 1204.3 244.4 1209.7C244.8 1212.2 245.7 1215.3 248.3 1215.6C249.9 1215.7 251.3 1214.5 251.9 1213C252.5 1211.5 252.4 1209.9 252.2 1208.3C251.5 1201.9 249.9 1195.6 247.8 1189.6C246.4 1185.5 244.5 1181.3 241 1178.9C237 1176.2 231.7 1176.3 226.9 1176.6C204.4 1178 181.8 1181.1 160.6 1188.8C156.3 1190.4 152 1192.2 148.8 1195.4C144.2 1200.1 142.7 1207 141.4 1213.5C140.1 1220.2 138.8 1227 139 1233.9" stroke="#003188" stroke-width="6" stroke-miterlimit="10" stroke-linecap="round" stroke-linejoin="round"/>
<path d="M1313 689C1471.5 691.2 1595.6 710.9 1595.6 734.8C1595.6 760.2 1455.9 780.8 1283.6 780.8C1111.3 780.8 971.6 760.2 971.6 734.8C971.6 712.2 1082.3 693.4 1228.3 689.5" stroke="#003188" stroke-width="6" stroke-miterlimit="10" stroke-linecap="round" stroke-linejoin="round"/>
<path d="M1593.1 773.7C1573.4 796.3 1442.4 813.8 1283.6 813.8C1146.2 813.8 1029.6 800.7 987.9 782.5" stroke="#003188" stroke-width="6" stroke-miterlimit="10" stroke-linecap="round" stroke-linejoin="round"/>
<path d="M971.1 736.6C970.8 746.7 970.4 756.7 970.1 766.8C970 769.1 970 771.4 970.6 773.6C971.2 775.8 972.7 777.9 974.8 778.7" stroke="#003188" stroke-width="6" stroke-miterlimit="10" stroke-linecap="round" stroke-linejoin="round"/>
<path d="M1598.1 735.4C1597.5 745.7 1597.3 756.1 1597.4 766.4" stroke="#003188" stroke-width="6" stroke-miterlimit="10" stroke-linecap="round" stroke-linejoin="round"/>
<path d="M1234.6 814.8V1553.8" stroke="#003188" stroke-width="6" stroke-miterlimit="10" stroke-linecap="round" stroke-linejoin="round"/>
<path d="M1300.6 814.8V1553.8" stroke="#003188" stroke-width="6" stroke-miterlimit="10" stroke-linecap="round" stroke-linejoin="round"/>
<path d="M1238.1 1559.9C1255.8 1566.6 1275.8 1567 1293.6 1560.8" stroke="#003188" stroke-width="6" stroke-miterlimit="10" stroke-linecap="round" stroke-linejoin="round"/>
<path d="M1300.6 1543.3C1371 1545.5 1423.6 1554.3 1423.6 1564.8C1423.6 1577 1352.9 1586.8 1265.6 1586.8C1178.3 1586.8 1107.6 1577 1107.6 1564.8C1107.6 1554.1 1162.2 1545.2 1234.6 1543.2" stroke="#003188" stroke-width="6" stroke-miterlimit="10" stroke-linecap="round" stroke-linejoin="round"/>
<path d="M1419.2 1604.3C1395.2 1612.2 1331.1 1617.7 1265.6 1617.7C1203.5 1617.7 1141.8 1612.7 1116 1605.5" stroke="#003188" stroke-width="6" stroke-miterlimit="10" stroke-linecap="round" stroke-linejoin="round"/>
<path d="M1104.8 1571.3C1104.1 1580.6 1104.1 1589.9 1104.7 1599.2" stroke="#003188" stroke-width="6" stroke-miterlimit="10" stroke-linecap="round" stroke-linejoin="round"/>
<path d="M1427.4 1573.4C1427.2 1581.3 1427 1589.2 1426.7 1597.1" stroke="#003188" stroke-width="6" stroke-miterlimit="10" stroke-linecap="round" stroke-linejoin="round"/>
<path d="M1250.6 987.8V1298.8" stroke="#003188" stroke-width="6" stroke-miterlimit="10" stroke-linecap="round" stroke-linejoin="round"/>
<path d="M1286.6 1395.8V1437.8" stroke="#003188" stroke-width="6" stroke-miterlimit="10" stroke-linecap="round" stroke-linejoin="round"/>
<path d="M1219.6 627.8L1234.6 734.8" stroke="#003188" stroke-width="6" stroke-miterlimit="10" stroke-linecap="round" stroke-linejoin="round"/>
<path d="M1321.6 627.8L1305.7 734.8" stroke="#003188" stroke-width="6" stroke-miterlimit="10" stroke-linecap="round" stroke-linejoin="round"/>
<path d="M1234.5 734.8C1257.9 740.7 1282.3 740.7 1305.7 734.8" stroke="#003188" stroke-width="6" stroke-miterlimit="10" stroke-linecap="round" stroke-linejoin="round"/>
<path d="M1219.7 626.8C1253.2 632.7 1288.1 632.7 1321.6 626.8" stroke="#003188" stroke-width="6" stroke-miterlimit="10" stroke-linecap="round" stroke-linejoin="round"/>
<path d="M1259.8 581.4C1249.7 541.3 1255.4 497.3 1275.5 461.1" stroke="#003188" stroke-width="6" stroke-miterlimit="10" stroke-linecap="round" stroke-linejoin="round"/>
<path d="M1277 460.3C1290.7 479.8 1298.1 503.4 1300.2 527.2C1302.3 551 1299.4 575 1293.7 598.2" stroke="#003188" stroke-width="6" stroke-miterlimit="10" stroke-linecap="round" stroke-linejoin="round"/>
<path d="M1277.4 604.1C1275 579.3 1273.8 554.4 1273.8 529.5" stroke="#003188" stroke-width="6" stroke-miterlimit="10" stroke-linecap="round" stroke-linejoin="round"/>
<path d="M1296.5 608.9C1303.7 584 1321.3 562.9 1342.9 548.8C1364.5 534.6 1390 527 1415.6 523.6C1388.2 558.2 1358.7 594.4 1317.1 609.5" stroke="#003188" stroke-width="6" stroke-miterlimit="10" stroke-linecap="round" stroke-linejoin="round"/>
<path d="M1328.6 585.3C1341 573.2 1355.1 562.9 1370.3 554.5" stroke="#003188" stroke-width="6" stroke-miterlimit="10" stroke-linecap="round" stroke-linejoin="round"/>
<path d="M1240.5 618.7C1221.7 612.1 1203.1 604 1188 591.3C1164.8 571.8 1152.2 543.2 1132.4 520.5C1152.7 524.2 1171.6 532.8 1190.3 541.3C1201.5 546.4 1212.8 551.6 1223 558.5C1244.8 573.3 1260.5 595.7 1270.1 619.8" stroke="#003188" stroke-width="6" stroke-miterlimit="10" stroke-linecap="round" stroke-linejoin="round"/>
<path d="M1184.1 553.9C1210.9 575 1236.6 597.5 1261.1 621.3" stroke="#003188" stroke-width="6" stroke-miterlimit="10" stroke-linecap="round" stroke-linejoin="round"/>
<path d="M1235.4 638.1C1255.9 643.4 1277.5 644.3 1298.4 640.8" stroke="#003188" stroke-width="6" stroke-miterlimit="10" stroke-linecap="round" stroke-linejoin="round"/>
<path d="M1251.6 728.2C1258.1 729.6 1264.8 730.2 1271.4 729.9" stroke="#003188" stroke-width="6" stroke-miterlimit="10" stroke-linecap="round" stroke-linejoin="round"/>
<path d="M1367.2 1595.6C1366.5 1595.5 1366.6 1596.9 1367.2 1596.7" stroke="#003188" stroke-width="6" stroke-miterlimit="10" stroke-linecap="round" stroke-linejoin="round"/>
<path d="M1301.5 827.9C1301.5 826.7 1301.5 825.7 1301.5 824.9C1301.6 815.5 1300.4 814.2 1290.9 813.2H1290.6C1274.9 811.5 1233.8 814.6 1233.6 816.2C1233.5 817 1234.1 842.4 1234.1 842.4C1250.9 853.2 1270.2 855.5 1289.3 849.9C1292.5 848.9 1295.9 847.8 1298.9 846.3C1298.9 846.2 1301.6 835.8 1301.5 827.9Z" fill="#003188"/>
<path d="M9 1641.8C15.1 1637.9 23 1637.1 29.8 1639.5C32.1 1640.3 34.2 1641.5 36.6 1642C45.1 1644 54.9 1637.9 62.2 1642.7" stroke="#003188" stroke-width="6" stroke-miterlimit="10" stroke-linecap="round" stroke-linejoin="round"/>
<path d="M255.6 1616.7C265.5 1612.4 277.2 1612.5 287.1 1617C289.7 1618.1 292.2 1619.6 295 1619.6C297.3 1619.6 299.5 1618.5 301.7 1617.6C315.6 1611.8 331.6 1611.4 345.7 1616.4" stroke="#003188" stroke-width="6" stroke-miterlimit="10" stroke-linecap="round" stroke-linejoin="round"/>
<path d="M480.1 1652.2C492 1647.3 505.7 1647.1 517.8 1651.6" stroke="#003188" stroke-width="6" stroke-miterlimit="10" stroke-linecap="round" stroke-linejoin="round"/>
<path d="M820.1 1663.7C827.4 1661.1 835.4 1660.6 842.9 1662.2" stroke="#003188" stroke-width="6" stroke-miterlimit="10" stroke-linecap="round" stroke-linejoin="round"/>
<path d="M895.6 1635.3C911.1 1629.1 928.8 1628.7 944.6 1634.1C947.9 1635.2 951.1 1636.6 954.5 1636.8C959 1637.1 963.3 1635.5 967.7 1634.3C979.9 1631.1 993.1 1631.6 1004.9 1635.9" stroke="#003188" stroke-width="6" stroke-miterlimit="10" stroke-linecap="round" stroke-linejoin="round"/>
<path d="M974.8 1583.7C981.3 1582.8 987.9 1583 994.3 1584.2" stroke="#003188" stroke-width="6" stroke-miterlimit="10" stroke-linecap="round" stroke-linejoin="round"/>
<path d="M507.1 1534.1C515.3 1529.3 525.8 1528.9 534.3 1532.9" stroke="#003188" stroke-width="6" stroke-miterlimit="10" stroke-linecap="round" stroke-linejoin="round"/>
<path d="M239.7 912.8C238.7 915.3 239.3 918.4 241.1 920.4C243 919.7 244.5 918.2 245.1 916.4C244.6 914.9 242.7 914.1 241.3 914.8" stroke="#003188" stroke-width="6" stroke-miterlimit="10" stroke-linecap="round" stroke-linejoin="round"/>
<path d="M1081.2 934.8C1081.3 935.4 1081.3 936 1081.4 936.6" stroke="#003188" stroke-width="6" stroke-miterlimit="10" stroke-linecap="round" stroke-linejoin="round"/>
<path d="M1459.6 1133.4C1457.4 1134.3 1456.2 1137.1 1457.1 1139.3C1458.4 1139.6 1459.7 1138.2 1459.3 1137" stroke="#003188" stroke-width="6" stroke-miterlimit="10" stroke-linecap="round" stroke-linejoin="round"/>
<path d="M1007.7 347.2C1006.2 347.6 1006 350.1 1007.4 350.8C1009.1 350.3 1010.5 348.9 1011 347.2C1009.2 345.8 1006.2 348.6 1007.4 350.5" stroke="#003188" stroke-width="6" stroke-miterlimit="10" stroke-linecap="round" stroke-linejoin="round"/>
<path d="M336.8 80.1001C334.8 80.8001 334.9 84.2001 336.8 84.9001C337.5 83.2001 338.4 80.9001 336.8 80.1001Z" stroke="#003188" stroke-width="6" stroke-miterlimit="10" stroke-linecap="round" stroke-linejoin="round"/>
<path d="M86.7 184.3C98.9 266.5 106.4 349.3 109.1 432.3" stroke="#9A4AFF" stroke-width="6" stroke-miterlimit="10" stroke-linecap="round" stroke-linejoin="round"/>
<path d="M88.5 170.1C254.7 163.4 422.4 198.4 572.1 271.1" stroke="#9A4AFF" stroke-width="6" stroke-miterlimit="10" stroke-linecap="round" stroke-linejoin="round"/>
<path d="M577.9 268C592.4 257.3 608.9 249.6 625.4 242.3C733.8 194.5 850 164.4 968 153.7" stroke="#9A4AFF" stroke-width="6" stroke-miterlimit="10" stroke-linecap="round" stroke-linejoin="round"/>
<path d="M573.8 273.8C559 433.9 555 594.9 561.9 755.5" stroke="#9A4AFF" stroke-width="6" stroke-miterlimit="10" stroke-linecap="round" stroke-linejoin="round"/>
<path d="M978.9 153C936.4 246.8 936.5 353.5 937.4 456.5" stroke="#9A4AFF" stroke-width="6" stroke-miterlimit="10" stroke-linecap="round" stroke-linejoin="round"/>
<path d="M931.9 555.1C931.3 597.7 930.6 640.3 930 683C929.6 711.2 929.2 739.9 937 767" stroke="#9A4AFF" stroke-width="6" stroke-miterlimit="10" stroke-linecap="round" stroke-linejoin="round"/>
<path d="M869.2 791.3C891.7 789 914 783.9 935.3 776.2" stroke="#9A4AFF" stroke-width="6" stroke-miterlimit="10" stroke-linecap="round" stroke-linejoin="round"/>
<path d="M111.1 518.4C113 613.4 106 708.6 90.3 802.2" stroke="#9A4AFF" stroke-width="6" stroke-miterlimit="10" stroke-linecap="round" stroke-linejoin="round"/>
<path d="M107 805.8C168 800.4 228.1 822.3 289.3 825.7C326.9 827.8 365.3 823 401.8 832.2" stroke="#9A4AFF" stroke-width="6" stroke-miterlimit="10" stroke-linecap="round" stroke-linejoin="round"/>
<path d="M580.4 257.7C601 234.9 629.6 221.3 657.4 208.3C742.8 168.5 829.2 128.3 921.5 109.2C923.6 124.5 925.7 139.9 927.8 155.2" stroke="#9A4AFF" stroke-width="6" stroke-miterlimit="10" stroke-linecap="round" stroke-linejoin="round"/>
<path d="M135.3 157.8C132.7 149.4 131.7 140.5 132.5 131.8" stroke="#9A4AFF" stroke-width="6" stroke-miterlimit="10" stroke-linecap="round" stroke-linejoin="round"/>
<path d="M140.6 129.1C262 127.9 469.7 204.9 571.6 270.8" stroke="#9A4AFF" stroke-width="6" stroke-miterlimit="10" stroke-linecap="round" stroke-linejoin="round"/>
<path d="M632.5 291.6C721.8 287.2 803.4 239.6 891.6 225" stroke="#9A4AFF" stroke-width="6" stroke-miterlimit="10" stroke-linecap="round" stroke-linejoin="round"/>
<path d="M646.3 338.2C725.6 312.3 806.4 291 888.2 274.4" stroke="#9A4AFF" stroke-width="6" stroke-miterlimit="10" stroke-linecap="round" stroke-linejoin="round"/>
<path d="M620.6 469.1C644.3 458.8 669.4 451.7 695 448.1" stroke="#9A4AFF" stroke-width="6" stroke-miterlimit="10" stroke-linecap="round" stroke-linejoin="round"/>
<path d="M619 498.7C641.6 491.6 664.6 486 688 481.9" stroke="#9A4AFF" stroke-width="6" stroke-miterlimit="10" stroke-linecap="round" stroke-linejoin="round"/>
<path d="M625.6 539C644.8 533.6 664 528.2 683.2 522.8" stroke="#9A4AFF" stroke-width="6" stroke-miterlimit="10" stroke-linecap="round" stroke-linejoin="round"/>
<path d="M616.7 588.3C637.9 579 660.4 572.6 683.4 569.5" stroke="#9A4AFF" stroke-width="6" stroke-miterlimit="10" stroke-linecap="round" stroke-linejoin="round"/>
<path d="M623.4 622.4C639.7 615.7 656.7 610.8 674 608" stroke="#9A4AFF" stroke-width="6" stroke-miterlimit="10" stroke-linecap="round" stroke-linejoin="round"/>
<path d="M768.7 435.8C786.6 434.2 804.4 431 821.7 426.3" stroke="#9A4AFF" stroke-width="6" stroke-miterlimit="10" stroke-linecap="round" stroke-linejoin="round"/>
<path d="M764.3 482.2C783.5 474.9 803.6 469.9 824 467.5" stroke="#9A4AFF" stroke-width="6" stroke-miterlimit="10" stroke-linecap="round" stroke-linejoin="round"/>
<path d="M766.5 519.2C785.7 514.5 804.9 509.7 824.1 505" stroke="#9A4AFF" stroke-width="6" stroke-miterlimit="10" stroke-linecap="round" stroke-linejoin="round"/>
<path d="M761.9 564.9C780.4 557.4 799.7 551.8 819.4 548.2" stroke="#9A4AFF" stroke-width="6" stroke-miterlimit="10" stroke-linecap="round" stroke-linejoin="round"/>
<path d="M771 606.1C782.7 601.5 795.4 599.2 807.9 599.4" stroke="#9A4AFF" stroke-width="6" stroke-miterlimit="10" stroke-linecap="round" stroke-linejoin="round"/>
<path d="M907.1 583.2C877.9 598.8 852.8 621.8 834.6 649.4" stroke="#9A4AFF" stroke-width="6" stroke-miterlimit="10" stroke-linecap="round" stroke-linejoin="round"/>
<path d="M897.6 610.6C881.7 626.9 868.5 645.7 858.5 666.2" stroke="#9A4AFF" stroke-width="6" stroke-miterlimit="10" stroke-linecap="round" stroke-linejoin="round"/>
<path d="M360.5 398.7C394.6 400.7 428.3 408.1 460.1 420.6" stroke="#9A4AFF" stroke-width="6" stroke-miterlimit="10" stroke-linecap="round" stroke-linejoin="round"/>
<path d="M355.9 440.3C388.9 447.9 421.4 457.6 453.1 469.4" stroke="#9A4AFF" stroke-width="6" stroke-miterlimit="10" stroke-linecap="round" stroke-linejoin="round"/>
<path d="M351.3 506.4C381.7 508.8 411.9 514.6 441.1 523.6" stroke="#9A4AFF" stroke-width="6" stroke-miterlimit="10" stroke-linecap="round" stroke-linejoin="round"/>
<path d="M353.5 560.6C381.2 565.9 408.9 571.1 436.6 576.4" stroke="#9A4AFF" stroke-width="6" stroke-miterlimit="10" stroke-linecap="round" stroke-linejoin="round"/>
<path d="M367.4 615.5C389.8 615.7 412.3 618 434.3 622.4" stroke="#9A4AFF" stroke-width="6" stroke-miterlimit="10" stroke-linecap="round" stroke-linejoin="round"/>
<path d="M175.7 449.6C201.6 437.6 229.4 429.8 257.8 426.8" stroke="#9A4AFF" stroke-width="6" stroke-miterlimit="10" stroke-linecap="round" stroke-linejoin="round"/>
<path d="M185.1 476C203.7 479.1 221.7 486.1 237.4 496.5" stroke="#9A4AFF" stroke-width="6" stroke-miterlimit="10" stroke-linecap="round" stroke-linejoin="round"/>
<path d="M160 229.4C165.2 260.2 166.1 291.7 162.6 322.7" stroke="#9A4AFF" stroke-width="6" stroke-miterlimit="10" stroke-linecap="round" stroke-linejoin="round"/>
<path d="M166.1 328.7C216.5 335.1 266.7 343.7 316.4 354.3" stroke="#9A4AFF" stroke-width="6" stroke-miterlimit="10" stroke-linecap="round" stroke-linejoin="round"/>
<path d="M163 228.8C216.3 231.9 269.2 241.6 320.1 257.5C320.8 288.8 321.5 320 322.1 351.3" stroke="#9A4AFF" stroke-width="6" stroke-miterlimit="10" stroke-linecap="round" stroke-linejoin="round"/>
<path d="M295.8 276.9C288 282.8 281.4 290.4 276.6 298.9" stroke="#9A4AFF" stroke-width="6" stroke-miterlimit="10" stroke-linecap="round" stroke-linejoin="round"/>
<path d="M295.7 294.2C291 299.5 286.2 304.7 281.5 310" stroke="#9A4AFF" stroke-width="6" stroke-miterlimit="10" stroke-linecap="round" stroke-linejoin="round"/>
<path d="M119.1 780.8C133.4 764.8 151.2 752 170.9 743.4" stroke="#9A4AFF" stroke-width="6" stroke-miterlimit="10" stroke-linecap="round" stroke-linejoin="round"/>
<path d="M136 788.3C158.1 782.6 181.4 781.7 203.8 785.7" stroke="#9A4AFF" stroke-width="6" stroke-miterlimit="10" stroke-linecap="round" stroke-linejoin="round"/>
</svg>
