<?xml version="1.0" standalone="no"?>
<!DOCTYPE svg PUBLIC "-//W3C//DTD SVG 20010904//EN"
 "http://www.w3.org/TR/2001/REC-SVG-20010904/DTD/svg10.dtd">
<svg version="1.0" xmlns="http://www.w3.org/2000/svg"
 width="700.000000pt" height="700.000000pt" viewBox="0 0 700.000000 700.000000"
 preserveAspectRatio="xMidYMid meet">
<metadata>
Created by potrace 1.11, written by Peter Selinger 2001-2013
</metadata>
<g transform="translate(0.000000,700.000000) scale(0.100000,-0.100000)"
fill="#000000" stroke="none">
<path d="M3926 4176 l-479 -473 134 -132 c73 -72 137 -131 140 -131 4 0 220
211 480 470 l474 469 -135 135 -135 135 -479 -473z"/>
<path d="M5020 4178 c-184 -182 -550 -543 -814 -804 -263 -261 -481 -474 -485
-474 -6 0 -444 428 -779 763 -92 92 -172 167 -177 167 -6 0 -69 -59 -141 -131
l-132 -131 400 -397 c220 -218 496 -491 614 -607 l215 -211 193 191 c107 105
514 508 906 896 392 388 734 726 760 752 l48 46 -135 134 c-74 73 -135 134
-136 135 -1 1 -153 -147 -337 -329z"/>
<path d="M1537 3703 l-137 -136 217 -214 c120 -118 396 -392 615 -608 l396
-393 137 135 138 136 -357 352 c-196 193 -473 467 -614 608 l-258 256 -137
-136z"/>
</g>
</svg>
